<svg id="Laag_1" data-name="Laag 1" xmlns="http://www.w3.org/2000/svg" viewBox="0 0 733.2 313.67">
  <defs>
    <style>
      .cls-1 {
        fill: #91c8b0;
      }

      .cls-2 {
        fill: #15897a;
      }

      .cls-3, .cls-6 {
        fill: #fff;
      }

      .cls-4 {
        fill: #e24c47;
      }

      .cls-5 {
        fill: #fcbf00;
      }

      .cls-6 {
        stroke: #000;
        stroke-miterlimit: 10;
        stroke-width: 9.82px;
      }
    </style>
  </defs>
  <title>matrixingevuld</title>
  <rect class="cls-1" x="112.93" width="147" height="65"/>
  <path d="M204,34v3h-1.76V28.47h3.33a3.85,3.85,0,0,1,1.68.35,2.57,2.57,0,0,1,1.13,1,2.78,2.78,0,0,1,.39,1.47,2.45,2.45,0,0,1-.86,2,3.57,3.57,0,0,1-2.37.72Zm0-1.42h1.57a1.55,1.55,0,0,0,1.06-.33,1.21,1.21,0,0,0,.37-.94,1.44,1.44,0,0,0-.37-1,1.39,1.39,0,0,0-1-.4H204Zm10-.32a4.68,4.68,0,0,0-.6,0,1.23,1.23,0,0,0-1.26.65V37h-1.7V30.66h1.6l0,.76a1.56,1.56,0,0,1,1.41-.88,1.84,1.84,0,0,1,.53.08Zm1,1.52a3.77,3.77,0,0,1,.36-1.68A2.69,2.69,0,0,1,216.43,31a3,3,0,0,1,1.58-.41,2.87,2.87,0,0,1,2.1.79,3.12,3.12,0,0,1,.9,2.13l0,.43a3.3,3.3,0,0,1-.82,2.35,3.15,3.15,0,0,1-4.37,0,3.35,3.35,0,0,1-.82-2.39Zm1.69.12a2.43,2.43,0,0,0,.34,1.39,1.14,1.14,0,0,0,1,.47,1.11,1.11,0,0,0,1-.47,2.59,2.59,0,0,0,.34-1.51A2.33,2.33,0,0,0,219,32.4a1.15,1.15,0,0,0-1-.49,1.12,1.12,0,0,0-1,.49A2.67,2.67,0,0,0,216.71,33.89ZM223.08,37V31.9h-.94V30.66h.94v-.29a2.38,2.38,0,0,1,.73-1.84,3,3,0,0,1,2.05-.65,6.82,6.82,0,0,1,1.92.34l-.25,1.4a7,7,0,0,0-.89-.21,3.58,3.58,0,0,0-.68-.06c-.79,0-1.18.35-1.18,1v.26H226V31.9h-1.25V37Zm5.49,0h-1.7V30.66h1.7Zm3.79,0h-1.7V28h1.7Zm4.92.12a3.15,3.15,0,0,1-2.28-.86,3.05,3.05,0,0,1-.87-2.28v-.16a3.77,3.77,0,0,1,.37-1.71,2.67,2.67,0,0,1,1-1.16,3,3,0,0,1,1.55-.41,2.62,2.62,0,0,1,2,.82,3.35,3.35,0,0,1,.75,2.33v.69h-4a1.59,1.59,0,0,0,.49,1,1.5,1.5,0,0,0,1,.37,1.82,1.82,0,0,0,1.53-.71l.83.93a2.61,2.61,0,0,1-1,.85A3.44,3.44,0,0,1,237.28,37.12Zm-.2-5.21a1.1,1.1,0,0,0-.82.34,1.77,1.77,0,0,0-.4,1h2.36v-.14a1.26,1.26,0,0,0-.31-.87A1.1,1.1,0,0,0,237.08,31.91Zm7.93.34a4.82,4.82,0,0,0-.61,0,1.25,1.25,0,0,0-1.26.65V37h-1.69V30.66h1.6l0,.76a1.56,1.56,0,0,1,1.41-.88,1.84,1.84,0,0,1,.53.08Zm4.22,4.87a3.12,3.12,0,0,1-2.27-.86,3.05,3.05,0,0,1-.87-2.28v-.16a3.77,3.77,0,0,1,.37-1.71,2.67,2.67,0,0,1,1-1.16,3,3,0,0,1,1.55-.41,2.64,2.64,0,0,1,2,.82,3.35,3.35,0,0,1,.75,2.33v.69h-4a1.6,1.6,0,0,0,.5,1,1.48,1.48,0,0,0,1,.37,1.79,1.79,0,0,0,1.52-.71l.84.93a2.61,2.61,0,0,1-1,.85A3.45,3.45,0,0,1,249.23,37.12ZM249,31.91a1.08,1.08,0,0,0-.82.34,1.77,1.77,0,0,0-.4,1h2.36v-.14a1.26,1.26,0,0,0-.31-.87A1.1,1.1,0,0,0,249,31.91ZM255,30.66l.05.73a2.23,2.23,0,0,1,1.82-.85,1.86,1.86,0,0,1,1.5.59,2.79,2.79,0,0,1,.51,1.77V37h-1.7V33a1.12,1.12,0,0,0-.23-.78,1,1,0,0,0-.78-.25,1.14,1.14,0,0,0-1.07.61V37h-1.7V30.66Z" transform="translate(-44.07 0)"/>
  <rect class="cls-2" x="269.93" width="147" height="65"/>
  <path class="cls-3" d="M360.35,35.24h-3.08L356.68,37h-1.87L358,28.47h1.63L362.81,37h-1.87Zm-2.61-1.42h2.13l-1.07-3.2ZM364.56,37V31.9h-.95V30.66h.95v-.54a2.17,2.17,0,0,1,.61-1.65,2.34,2.34,0,0,1,1.71-.59,4.48,4.48,0,0,1,.87.11l0,1.32a1.9,1.9,0,0,0-.52-.06c-.63,0-.95.3-.95.9v.51h1.26V31.9h-1.26V37Zm7.87-1.75a.54.54,0,0,0-.31-.49,3.27,3.27,0,0,0-1-.32c-1.51-.32-2.27-1-2.27-1.92a1.77,1.77,0,0,1,.7-1.41,2.82,2.82,0,0,1,1.83-.57,3,3,0,0,1,1.93.57,1.78,1.78,0,0,1,.73,1.48h-1.7a.81.81,0,0,0-.23-.6,1.24,1.24,0,0,0-1.39,0,.62.62,0,0,0-.24.5.52.52,0,0,0,.27.45,2.58,2.58,0,0,0,.9.3,7.23,7.23,0,0,1,1.06.28,1.76,1.76,0,0,1,1.35,1.71,1.65,1.65,0,0,1-.75,1.4,3.16,3.16,0,0,1-1.92.54,3.56,3.56,0,0,1-1.42-.28,2.62,2.62,0,0,1-1-.78,1.88,1.88,0,0,1-.35-1.08h1.61a.92.92,0,0,0,.33.7,1.35,1.35,0,0,0,.84.24,1.18,1.18,0,0,0,.73-.19A.56.56,0,0,0,372.43,35.25Zm5.37-6.15v1.56h1.08V31.9H377.8v3.17a.75.75,0,0,0,.13.5.7.7,0,0,0,.52.15,2.53,2.53,0,0,0,.5,0V37a3.26,3.26,0,0,1-1,.16,1.61,1.61,0,0,1-1.81-1.8V31.9h-.93V30.66h.93V29.1Zm6.42,7.26a2.14,2.14,0,0,1-1.73.76,2,2,0,0,1-1.56-.59,2.49,2.49,0,0,1-.54-1.72V30.66h1.69v4.1q0,1,.9,1a1.24,1.24,0,0,0,1.19-.6V30.66h1.69V37h-1.59Zm3.26-2.58a3.84,3.84,0,0,1,.66-2.36,2.17,2.17,0,0,1,1.82-.88,1.94,1.94,0,0,1,1.53.69V28h1.7v9h-1.53l-.08-.67a2,2,0,0,1-1.63.79,2.19,2.19,0,0,1-1.8-.88A4,4,0,0,1,387.48,33.78Zm1.69.13a2.44,2.44,0,0,0,.31,1.36,1,1,0,0,0,.9.48,1.12,1.12,0,0,0,1.11-.67v-2.5a1.11,1.11,0,0,0-1.09-.66C389.58,31.92,389.17,32.58,389.17,33.91ZM398,37.12a3.11,3.11,0,0,1-2.27-.86,3.05,3.05,0,0,1-.87-2.28v-.16a3.9,3.9,0,0,1,.36-1.71A2.75,2.75,0,0,1,396.29,31a3,3,0,0,1,1.54-.41,2.66,2.66,0,0,1,2.05.82,3.35,3.35,0,0,1,.75,2.33v.69h-4a1.64,1.64,0,0,0,.49,1,1.51,1.51,0,0,0,1.05.37,1.79,1.79,0,0,0,1.53-.71l.83.93a2.48,2.48,0,0,1-1,.85A3.37,3.37,0,0,1,398,37.12Zm-.19-5.21a1.08,1.08,0,0,0-.82.34,1.77,1.77,0,0,0-.4,1H399v-.14a1.21,1.21,0,0,0-.3-.87A1.12,1.12,0,0,0,397.83,31.91Zm7.93.34a5,5,0,0,0-.61,0,1.25,1.25,0,0,0-1.26.65V37H402.2V30.66h1.6l0,.76a1.56,1.56,0,0,1,1.41-.88,1.78,1.78,0,0,1,.53.08ZM410,37.12a3.15,3.15,0,0,1-2.28-.86,3.05,3.05,0,0,1-.87-2.28v-.16a3.77,3.77,0,0,1,.37-1.71,2.8,2.8,0,0,1,1-1.16,3,3,0,0,1,1.55-.41,2.66,2.66,0,0,1,2,.82,3.35,3.35,0,0,1,.75,2.33v.69h-4a1.59,1.59,0,0,0,.49,1,1.51,1.51,0,0,0,1,.37,1.82,1.82,0,0,0,1.53-.71l.83.93a2.54,2.54,0,0,1-1,.85A3.37,3.37,0,0,1,410,37.12Zm-.19-5.21a1.12,1.12,0,0,0-.83.34,1.76,1.76,0,0,0-.39,1h2.35v-.14a1.3,1.3,0,0,0-.3-.87A1.13,1.13,0,0,0,409.79,31.91Zm5.92-1.25.05.73a2.26,2.26,0,0,1,1.83-.85,1.86,1.86,0,0,1,1.5.59,2.79,2.79,0,0,1,.5,1.77V37H417.9V33a1.07,1.07,0,0,0-.24-.78,1,1,0,0,0-.78-.25,1.16,1.16,0,0,0-1.07.61V37h-1.69V30.66Z" transform="translate(-44.07 0)"/>
  <rect class="cls-4" x="426.93" width="147" height="65"/>
  <path class="cls-3" d="M519.78,33.3H516.4v2.29h4V37h-5.72V28.47h5.71v1.42h-4v2h3.38Zm4.51-.75,1.07-1.89h1.81l-1.8,3.11L527.25,37h-1.82l-1.13-2-1.13,2h-1.82l1.88-3.23-1.8-3.11h1.82Zm6.81,3.2a1.09,1.09,0,0,0,.77-.26.92.92,0,0,0,.3-.68h1.59a2.15,2.15,0,0,1-.35,1.18,2.33,2.33,0,0,1-.95.83,2.91,2.91,0,0,1-1.32.3,2.77,2.77,0,0,1-2.15-.86,3.46,3.46,0,0,1-.78-2.39v-.12a3.41,3.41,0,0,1,.77-2.33,2.71,2.71,0,0,1,2.14-.88,2.67,2.67,0,0,1,1.91.68,2.39,2.39,0,0,1,.73,1.8h-1.59a1.19,1.19,0,0,0-.3-.8,1.06,1.06,0,0,0-.78-.31,1,1,0,0,0-.89.44,2.47,2.47,0,0,0-.3,1.39v.18a2.49,2.49,0,0,0,.3,1.4A1,1,0,0,0,531.1,35.75Zm7.14,1.37a3.14,3.14,0,0,1-2.27-.86A3.05,3.05,0,0,1,535.1,34v-.16a3.77,3.77,0,0,1,.37-1.71,2.67,2.67,0,0,1,1-1.16,3,3,0,0,1,1.55-.41,2.64,2.64,0,0,1,2,.82,3.35,3.35,0,0,1,.75,2.33v.69h-4a1.54,1.54,0,0,0,.49,1,1.48,1.48,0,0,0,1.05.37,1.82,1.82,0,0,0,1.53-.71l.83.93a2.61,2.61,0,0,1-1,.85A3.45,3.45,0,0,1,538.24,37.12Zm-.19-5.21a1.1,1.1,0,0,0-.82.34,1.77,1.77,0,0,0-.4,1h2.36v-.14a1.26,1.26,0,0,0-.31-.87A1.1,1.1,0,0,0,538.05,31.91ZM544.21,37h-1.7V28h1.7ZM548,37h-1.7V28H548Zm4.92.12a3.11,3.11,0,0,1-2.27-.86,3.05,3.05,0,0,1-.87-2.28v-.16a3.9,3.9,0,0,1,.36-1.71,2.75,2.75,0,0,1,1-1.16,3,3,0,0,1,1.54-.41,2.66,2.66,0,0,1,2,.82,3.35,3.35,0,0,1,.75,2.33v.69h-4a1.64,1.64,0,0,0,.49,1,1.51,1.51,0,0,0,1,.37,1.82,1.82,0,0,0,1.53-.71l.83.93a2.48,2.48,0,0,1-1,.85A3.37,3.37,0,0,1,552.91,37.12Zm-.19-5.21a1.08,1.08,0,0,0-.82.34,1.77,1.77,0,0,0-.4,1h2.35v-.14a1.21,1.21,0,0,0-.3-.87A1.12,1.12,0,0,0,552.72,31.91Zm7.93.34a4.82,4.82,0,0,0-.61,0,1.25,1.25,0,0,0-1.26.65V37h-1.69V30.66h1.6l0,.76a1.56,1.56,0,0,1,1.42-.88,1.77,1.77,0,0,1,.52.08Zm4.22,4.87a3.11,3.11,0,0,1-2.27-.86,3,3,0,0,1-.88-2.28v-.16a3.91,3.91,0,0,1,.37-1.71,2.75,2.75,0,0,1,1-1.16,2.93,2.93,0,0,1,1.54-.41,2.66,2.66,0,0,1,2.05.82,3.35,3.35,0,0,1,.75,2.33v.69h-4a1.59,1.59,0,0,0,.49,1,1.51,1.51,0,0,0,1.05.37,1.82,1.82,0,0,0,1.53-.71l.83.93a2.54,2.54,0,0,1-1,.85A3.37,3.37,0,0,1,564.87,37.12Zm-.19-5.21a1.08,1.08,0,0,0-.82.34,1.77,1.77,0,0,0-.4,1h2.35v-.14a1.3,1.3,0,0,0-.3-.87A1.12,1.12,0,0,0,564.68,31.91Zm5.92-1.25.06.73a2.23,2.23,0,0,1,1.82-.85,1.86,1.86,0,0,1,1.5.59,2.85,2.85,0,0,1,.5,1.77V37h-1.69V33a1.07,1.07,0,0,0-.24-.78,1,1,0,0,0-.78-.25,1.16,1.16,0,0,0-1.07.61V37H569V30.66Z" transform="translate(-44.07 0)"/>
  <rect class="cls-4" x="583.93" width="147" height="65"/>
  <path class="cls-3" d="M676.78,33.3H673.4v2.29h4V37h-5.72V28.47h5.71v1.42h-4v2h3.38Zm4.51-.75,1.07-1.89h1.81l-1.8,3.11L684.25,37h-1.82l-1.13-2-1.13,2h-1.82l1.88-3.23-1.8-3.11h1.82Zm6.81,3.2a1.09,1.09,0,0,0,.77-.26.92.92,0,0,0,.3-.68h1.59a2.15,2.15,0,0,1-.35,1.18,2.33,2.33,0,0,1-.95.83,2.91,2.91,0,0,1-1.32.3,2.77,2.77,0,0,1-2.15-.86,3.46,3.46,0,0,1-.78-2.39v-.12a3.41,3.41,0,0,1,.77-2.33,2.71,2.71,0,0,1,2.14-.88,2.67,2.67,0,0,1,1.91.68,2.39,2.39,0,0,1,.73,1.8h-1.59a1.19,1.19,0,0,0-.3-.8,1.06,1.06,0,0,0-.78-.31,1,1,0,0,0-.89.44,2.47,2.47,0,0,0-.3,1.39v.18a2.49,2.49,0,0,0,.3,1.4A1,1,0,0,0,688.1,35.75Zm7.14,1.37a3.14,3.14,0,0,1-2.27-.86A3.05,3.05,0,0,1,692.1,34v-.16a3.77,3.77,0,0,1,.37-1.71,2.67,2.67,0,0,1,1-1.16,3,3,0,0,1,1.55-.41,2.64,2.64,0,0,1,2,.82,3.35,3.35,0,0,1,.75,2.33v.69h-4a1.54,1.54,0,0,0,.49,1,1.48,1.48,0,0,0,1.05.37,1.82,1.82,0,0,0,1.53-.71l.83.93a2.61,2.61,0,0,1-1,.85A3.45,3.45,0,0,1,695.24,37.12Zm-.19-5.21a1.1,1.1,0,0,0-.82.34,1.77,1.77,0,0,0-.4,1h2.36v-.14a1.26,1.26,0,0,0-.31-.87A1.1,1.1,0,0,0,695.05,31.91ZM701.21,37h-1.7V28h1.7ZM705,37h-1.7V28H705Zm4.92.12a3.11,3.11,0,0,1-2.27-.86,3.05,3.05,0,0,1-.87-2.28v-.16a3.9,3.9,0,0,1,.36-1.71,2.75,2.75,0,0,1,1-1.16,3,3,0,0,1,1.54-.41,2.66,2.66,0,0,1,2,.82,3.35,3.35,0,0,1,.75,2.33v.69h-4a1.64,1.64,0,0,0,.49,1,1.51,1.51,0,0,0,1,.37,1.82,1.82,0,0,0,1.53-.71l.83.93a2.48,2.48,0,0,1-1,.85A3.37,3.37,0,0,1,709.91,37.12Zm-.19-5.21a1.08,1.08,0,0,0-.82.34,1.77,1.77,0,0,0-.4,1h2.35v-.14a1.21,1.21,0,0,0-.3-.87A1.12,1.12,0,0,0,709.72,31.91Zm7.93.34a4.82,4.82,0,0,0-.61,0,1.25,1.25,0,0,0-1.26.65V37h-1.69V30.66h1.6l0,.76a1.56,1.56,0,0,1,1.42-.88,1.77,1.77,0,0,1,.52.08Zm4.22,4.87a3.11,3.11,0,0,1-2.27-.86,3,3,0,0,1-.88-2.28v-.16a3.91,3.91,0,0,1,.37-1.71,2.75,2.75,0,0,1,1-1.16,2.93,2.93,0,0,1,1.54-.41,2.66,2.66,0,0,1,2.05.82,3.35,3.35,0,0,1,.75,2.33v.69h-4a1.59,1.59,0,0,0,.49,1,1.51,1.51,0,0,0,1.05.37,1.82,1.82,0,0,0,1.53-.71l.83.93a2.54,2.54,0,0,1-1,.85A3.37,3.37,0,0,1,721.87,37.12Zm-.19-5.21a1.08,1.08,0,0,0-.82.34,1.77,1.77,0,0,0-.4,1h2.35v-.14a1.3,1.3,0,0,0-.3-.87A1.12,1.12,0,0,0,721.68,31.91Zm5.92-1.25.06.73a2.23,2.23,0,0,1,1.82-.85,1.86,1.86,0,0,1,1.5.59,2.85,2.85,0,0,1,.5,1.77V37h-1.69V33a1.07,1.07,0,0,0-.24-.78,1,1,0,0,0-.78-.25,1.16,1.16,0,0,0-1.07.61V37H726V30.66Z" transform="translate(-44.07 0)"/>
  <rect class="cls-1" x="112.93" y="75" width="147" height="65"/>
  <path d="M204,109v3h-1.76v-8.53h3.33a3.85,3.85,0,0,1,1.68.35,2.57,2.57,0,0,1,1.13,1,2.78,2.78,0,0,1,.39,1.47,2.45,2.45,0,0,1-.86,2,3.57,3.57,0,0,1-2.37.72Zm0-1.42h1.57a1.55,1.55,0,0,0,1.06-.33,1.21,1.21,0,0,0,.37-.94,1.44,1.44,0,0,0-.37-1,1.39,1.39,0,0,0-1-.4H204Zm10-.32a4.68,4.68,0,0,0-.6,0,1.23,1.23,0,0,0-1.26.65V112h-1.7v-6.34h1.6l0,.76a1.56,1.56,0,0,1,1.41-.88,1.84,1.84,0,0,1,.53.08Zm1,1.52a3.77,3.77,0,0,1,.36-1.68,2.69,2.69,0,0,1,1.05-1.14,3,3,0,0,1,1.58-.41,2.87,2.87,0,0,1,2.1.79,3.12,3.12,0,0,1,.9,2.13l0,.43a3.3,3.3,0,0,1-.82,2.35,3.15,3.15,0,0,1-4.37,0,3.37,3.37,0,0,1-.82-2.39Zm1.69.12a2.43,2.43,0,0,0,.34,1.39,1.14,1.14,0,0,0,1,.47,1.11,1.11,0,0,0,1-.47,2.59,2.59,0,0,0,.34-1.51,2.33,2.33,0,0,0-.34-1.37,1.15,1.15,0,0,0-1-.49,1.12,1.12,0,0,0-1,.49A2.67,2.67,0,0,0,216.71,108.89Zm6.37,3.11v-5.1h-.94v-1.24h.94v-.29a2.38,2.38,0,0,1,.73-1.84,3,3,0,0,1,2.05-.65,6.82,6.82,0,0,1,1.92.34l-.25,1.4a7,7,0,0,0-.89-.21,3.58,3.58,0,0,0-.68-.06c-.79,0-1.18.35-1.18,1.05v.26H226v1.24h-1.25V112Zm5.49,0h-1.7v-6.34h1.7Zm3.79,0h-1.7v-9h1.7Zm4.92.12a3.15,3.15,0,0,1-2.28-.86,3.05,3.05,0,0,1-.87-2.28v-.16a3.77,3.77,0,0,1,.37-1.71,2.67,2.67,0,0,1,1-1.16,3,3,0,0,1,1.55-.41,2.62,2.62,0,0,1,2,.82,3.35,3.35,0,0,1,.75,2.33v.69h-4a1.59,1.59,0,0,0,.49,1,1.5,1.5,0,0,0,1,.37,1.82,1.82,0,0,0,1.53-.71l.83.93a2.7,2.7,0,0,1-1,.85A3.44,3.44,0,0,1,237.28,112.12Zm-.2-5.21a1.1,1.1,0,0,0-.82.34,1.77,1.77,0,0,0-.4,1h2.36v-.14a1.26,1.26,0,0,0-.31-.87A1.1,1.1,0,0,0,237.08,106.91Zm7.93.34a4.82,4.82,0,0,0-.61,0,1.25,1.25,0,0,0-1.26.65V112h-1.69v-6.34h1.6l0,.76a1.56,1.56,0,0,1,1.41-.88,1.84,1.84,0,0,1,.53.08Zm4.22,4.87a3.12,3.12,0,0,1-2.27-.86,3.05,3.05,0,0,1-.87-2.28v-.16a3.77,3.77,0,0,1,.37-1.71,2.67,2.67,0,0,1,1-1.16,3,3,0,0,1,1.55-.41,2.64,2.64,0,0,1,2,.82,3.35,3.35,0,0,1,.75,2.33v.69h-4a1.6,1.6,0,0,0,.5,1,1.48,1.48,0,0,0,1,.37,1.79,1.79,0,0,0,1.52-.71l.84.93a2.7,2.7,0,0,1-1,.85A3.45,3.45,0,0,1,249.23,112.12Zm-.19-5.21a1.08,1.08,0,0,0-.82.34,1.77,1.77,0,0,0-.4,1h2.36v-.14a1.26,1.26,0,0,0-.31-.87A1.1,1.1,0,0,0,249,106.91Zm5.93-1.25.05.73a2.23,2.23,0,0,1,1.82-.85,1.86,1.86,0,0,1,1.5.59,2.79,2.79,0,0,1,.51,1.77V112h-1.7v-4.06a1.11,1.11,0,0,0-.23-.77,1,1,0,0,0-.78-.25,1.14,1.14,0,0,0-1.07.61V112h-1.7v-6.34Z" transform="translate(-44.07 0)"/>
  <rect class="cls-1" x="269.93" y="75" width="147" height="65"/>
  <path d="M361,109v3h-1.76v-8.53h3.33a3.85,3.85,0,0,1,1.68.35,2.57,2.57,0,0,1,1.13,1,2.78,2.78,0,0,1,.39,1.47,2.45,2.45,0,0,1-.86,2,3.57,3.57,0,0,1-2.37.72Zm0-1.42h1.57a1.55,1.55,0,0,0,1.06-.33,1.21,1.21,0,0,0,.37-.94,1.44,1.44,0,0,0-.37-1,1.39,1.39,0,0,0-1-.4H361Zm10-.32a5,5,0,0,0-.61,0,1.24,1.24,0,0,0-1.26.65V112h-1.7v-6.34h1.6l.05.76a1.56,1.56,0,0,1,1.41-.88,1.84,1.84,0,0,1,.53.08Zm.94,1.52a3.77,3.77,0,0,1,.36-1.68,2.69,2.69,0,0,1,1.05-1.14,3,3,0,0,1,1.59-.41,2.86,2.86,0,0,1,2.09.79,3.18,3.18,0,0,1,.91,2.13v.43a3.3,3.3,0,0,1-.82,2.35,2.85,2.85,0,0,1-2.18.88,2.89,2.89,0,0,1-2.2-.88,3.41,3.41,0,0,1-.81-2.39Zm1.69.12a2.43,2.43,0,0,0,.34,1.39,1.16,1.16,0,0,0,1,.47,1.11,1.11,0,0,0,1-.47,2.59,2.59,0,0,0,.34-1.51,2.33,2.33,0,0,0-.34-1.37,1.14,1.14,0,0,0-1-.49,1.13,1.13,0,0,0-1,.49A2.67,2.67,0,0,0,373.71,108.89Zm6.37,3.11v-5.1h-.94v-1.24h.94v-.29a2.38,2.38,0,0,1,.73-1.84,3,3,0,0,1,2.05-.65,6.82,6.82,0,0,1,1.92.34l-.25,1.4a7,7,0,0,0-.89-.21,3.66,3.66,0,0,0-.68-.06c-.79,0-1.18.35-1.18,1.05v.26H383v1.24h-1.25V112Zm5.49,0h-1.7v-6.34h1.7Zm3.79,0h-1.7v-9h1.7Zm4.92.12a3.15,3.15,0,0,1-2.28-.86,3.05,3.05,0,0,1-.87-2.28v-.16a3.77,3.77,0,0,1,.37-1.71,2.67,2.67,0,0,1,1-1.16,3,3,0,0,1,1.55-.41,2.64,2.64,0,0,1,2,.82,3.35,3.35,0,0,1,.75,2.33v.69h-4a1.59,1.59,0,0,0,.49,1,1.5,1.5,0,0,0,1.05.37,1.82,1.82,0,0,0,1.53-.71l.83.93a2.7,2.7,0,0,1-1,.85A3.44,3.44,0,0,1,394.28,112.12Zm-.2-5.21a1.1,1.1,0,0,0-.82.34,1.77,1.77,0,0,0-.4,1h2.36v-.14a1.26,1.26,0,0,0-.31-.87A1.1,1.1,0,0,0,394.08,106.91Zm7.93.34a4.82,4.82,0,0,0-.61,0,1.25,1.25,0,0,0-1.26.65V112h-1.69v-6.34h1.6l.05.76a1.56,1.56,0,0,1,1.41-.88,1.84,1.84,0,0,1,.53.08Zm4.22,4.87a3.12,3.12,0,0,1-2.27-.86,3.05,3.05,0,0,1-.87-2.28v-.16a3.77,3.77,0,0,1,.37-1.71,2.67,2.67,0,0,1,1-1.16,3,3,0,0,1,1.55-.41,2.64,2.64,0,0,1,2,.82,3.35,3.35,0,0,1,.75,2.33v.69h-4a1.6,1.6,0,0,0,.5,1,1.48,1.48,0,0,0,1.05.37,1.79,1.79,0,0,0,1.52-.71l.84.93a2.66,2.66,0,0,1-1,.85A3.37,3.37,0,0,1,406.23,112.12Zm-.19-5.21a1.08,1.08,0,0,0-.82.34,1.77,1.77,0,0,0-.4,1h2.36v-.14a1.26,1.26,0,0,0-.31-.87A1.1,1.1,0,0,0,406,106.91Zm5.93-1.25,0,.73a2.23,2.23,0,0,1,1.82-.85,1.86,1.86,0,0,1,1.5.59,2.79,2.79,0,0,1,.51,1.77V112h-1.7v-4.06a1.11,1.11,0,0,0-.23-.77,1,1,0,0,0-.78-.25,1.14,1.14,0,0,0-1.07.61V112h-1.7v-6.34Z" transform="translate(-44.07 0)"/>
  <rect class="cls-2" x="426.93" y="75" width="147" height="65"/>
  <path class="cls-3" d="M517.35,110.24h-3.08l-.59,1.76h-1.87l3.18-8.53h1.63l3.19,8.53h-1.87Zm-2.61-1.42h2.13l-1.07-3.2Zm6.82,3.18v-5.1h-.95v-1.24h.95v-.54a2.17,2.17,0,0,1,.61-1.65,2.34,2.34,0,0,1,1.71-.59,4.48,4.48,0,0,1,.87.11l0,1.32a1.9,1.9,0,0,0-.52-.06c-.63,0-1,.3-1,.9v.51h1.26v1.24h-1.26V112Zm7.87-1.75a.54.54,0,0,0-.31-.49,3.27,3.27,0,0,0-1-.32c-1.51-.32-2.27-1-2.27-1.92a1.73,1.73,0,0,1,.7-1.41,2.82,2.82,0,0,1,1.83-.57,3,3,0,0,1,1.93.57,1.78,1.78,0,0,1,.73,1.48h-1.7a.81.81,0,0,0-.23-.6,1.24,1.24,0,0,0-1.39,0,.62.62,0,0,0-.24.5.53.53,0,0,0,.27.45,2.81,2.81,0,0,0,.9.3,7.23,7.23,0,0,1,1.06.28,1.76,1.76,0,0,1,1.35,1.71,1.65,1.65,0,0,1-.75,1.4,3.16,3.16,0,0,1-1.92.54,3.56,3.56,0,0,1-1.42-.28,2.5,2.5,0,0,1-1-.78,1.82,1.82,0,0,1-.36-1.08h1.61a.9.9,0,0,0,.33.7,1.35,1.35,0,0,0,.84.24,1.25,1.25,0,0,0,.73-.19A.56.56,0,0,0,529.43,110.25Zm5.37-6.15v1.56h1.08v1.24H534.8v3.17a.75.75,0,0,0,.13.5.7.7,0,0,0,.52.15,2.53,2.53,0,0,0,.5,0V112a3.26,3.26,0,0,1-1,.16,1.61,1.61,0,0,1-1.81-1.8V106.9h-.93v-1.24h.93V104.1Zm6.42,7.25a2.12,2.12,0,0,1-1.73.77,2,2,0,0,1-1.56-.59,2.49,2.49,0,0,1-.54-1.72v-4.15h1.69v4.1q0,1,.9,1a1.22,1.22,0,0,0,1.18-.6v-4.49h1.7V112h-1.59Zm3.26-2.57a3.84,3.84,0,0,1,.66-2.36,2.18,2.18,0,0,1,1.82-.88,1.94,1.94,0,0,1,1.53.69V103h1.7v9h-1.53l-.08-.67a2,2,0,0,1-1.63.79,2.17,2.17,0,0,1-1.8-.88A4,4,0,0,1,544.48,108.78Zm1.69.13a2.56,2.56,0,0,0,.31,1.36,1,1,0,0,0,.9.48,1.13,1.13,0,0,0,1.11-.67v-2.5a1.12,1.12,0,0,0-1.09-.66C546.58,106.92,546.17,107.58,546.17,108.91Zm8.85,3.21a3.11,3.11,0,0,1-2.27-.86,3.05,3.05,0,0,1-.87-2.28v-.16a3.9,3.9,0,0,1,.36-1.71,2.75,2.75,0,0,1,1-1.16,3,3,0,0,1,1.54-.41,2.66,2.66,0,0,1,2,.82,3.35,3.35,0,0,1,.75,2.33v.69h-4a1.64,1.64,0,0,0,.49,1,1.51,1.51,0,0,0,1,.37,1.82,1.82,0,0,0,1.53-.71l.83.93a2.55,2.55,0,0,1-1,.85A3.37,3.37,0,0,1,555,112.12Zm-.19-5.21a1.08,1.08,0,0,0-.82.34,1.77,1.77,0,0,0-.4,1H556v-.14a1.26,1.26,0,0,0-.3-.87A1.12,1.12,0,0,0,554.83,106.91Zm7.93.34a5,5,0,0,0-.61,0,1.25,1.25,0,0,0-1.26.65V112H559.2v-6.34h1.59l.05.76a1.56,1.56,0,0,1,1.41-.88,1.78,1.78,0,0,1,.53.08Zm4.22,4.87a3.11,3.11,0,0,1-2.27-.86,3,3,0,0,1-.88-2.28v-.16a3.91,3.91,0,0,1,.37-1.71,2.73,2.73,0,0,1,1-1.16,3,3,0,0,1,1.55-.41,2.66,2.66,0,0,1,2.05.82,3.35,3.35,0,0,1,.75,2.33v.69h-4a1.59,1.59,0,0,0,.49,1,1.51,1.51,0,0,0,1.05.37,1.82,1.82,0,0,0,1.53-.71l.83.93a2.62,2.62,0,0,1-1,.85A3.37,3.37,0,0,1,567,112.12Zm-.19-5.21a1.08,1.08,0,0,0-.82.34,1.7,1.7,0,0,0-.4,1h2.35v-.14a1.3,1.3,0,0,0-.3-.87A1.12,1.12,0,0,0,566.79,106.91Zm5.92-1.25,0,.73a2.26,2.26,0,0,1,1.83-.85,1.86,1.86,0,0,1,1.5.59,2.85,2.85,0,0,1,.5,1.77V112H574.9v-4.06a1.06,1.06,0,0,0-.24-.77,1,1,0,0,0-.78-.25,1.16,1.16,0,0,0-1.07.61V112h-1.69v-6.34Z" transform="translate(-44.07 0)"/>
  <rect class="cls-4" x="583.93" y="75" width="147" height="65"/>
  <path class="cls-3" d="M676.78,108.3H673.4v2.29h4V112h-5.72v-8.53h5.71v1.42h-4v2h3.38Zm4.51-.75,1.07-1.89h1.81l-1.8,3.11,1.88,3.23h-1.82l-1.13-2-1.13,2h-1.82l1.88-3.23-1.8-3.11h1.82Zm6.81,3.2a1.09,1.09,0,0,0,.77-.26.92.92,0,0,0,.3-.68h1.59a2.15,2.15,0,0,1-.35,1.18,2.33,2.33,0,0,1-.95.83,2.91,2.91,0,0,1-1.32.3,2.77,2.77,0,0,1-2.15-.86,3.47,3.47,0,0,1-.78-2.4v-.11a3.41,3.41,0,0,1,.77-2.33,2.71,2.71,0,0,1,2.14-.88,2.67,2.67,0,0,1,1.91.68,2.39,2.39,0,0,1,.73,1.8h-1.59a1.19,1.19,0,0,0-.3-.8,1.06,1.06,0,0,0-.78-.31,1,1,0,0,0-.89.44,2.47,2.47,0,0,0-.3,1.39v.18a2.49,2.49,0,0,0,.3,1.4A1,1,0,0,0,688.1,110.75Zm7.14,1.37a3.14,3.14,0,0,1-2.27-.86,3.05,3.05,0,0,1-.87-2.28v-.16a3.77,3.77,0,0,1,.37-1.71,2.67,2.67,0,0,1,1-1.16,3,3,0,0,1,1.55-.41,2.64,2.64,0,0,1,2,.82,3.35,3.35,0,0,1,.75,2.33v.69h-4a1.54,1.54,0,0,0,.49,1,1.48,1.48,0,0,0,1.05.37,1.82,1.82,0,0,0,1.53-.71l.83.93a2.7,2.7,0,0,1-1,.85A3.45,3.45,0,0,1,695.24,112.12Zm-.19-5.21a1.1,1.1,0,0,0-.82.34,1.77,1.77,0,0,0-.4,1h2.36v-.14a1.26,1.26,0,0,0-.31-.87A1.1,1.1,0,0,0,695.05,106.91Zm6.16,5.09h-1.7v-9h1.7Zm3.78,0h-1.7v-9H705Zm4.92.12a3.11,3.11,0,0,1-2.27-.86,3.05,3.05,0,0,1-.87-2.28v-.16a3.9,3.9,0,0,1,.36-1.71,2.75,2.75,0,0,1,1-1.16,3,3,0,0,1,1.54-.41,2.66,2.66,0,0,1,2,.82,3.35,3.35,0,0,1,.75,2.33v.69h-4a1.64,1.64,0,0,0,.49,1,1.51,1.51,0,0,0,1,.37,1.82,1.82,0,0,0,1.53-.71l.83.93a2.55,2.55,0,0,1-1,.85A3.37,3.37,0,0,1,709.91,112.12Zm-.19-5.21a1.08,1.08,0,0,0-.82.34,1.77,1.77,0,0,0-.4,1h2.35v-.14a1.21,1.21,0,0,0-.3-.87A1.12,1.12,0,0,0,709.72,106.91Zm7.93.34a4.82,4.82,0,0,0-.61,0,1.25,1.25,0,0,0-1.26.65V112h-1.69v-6.34h1.6l0,.76a1.56,1.56,0,0,1,1.42-.88,1.77,1.77,0,0,1,.52.08Zm4.22,4.87a3.11,3.11,0,0,1-2.27-.86,3,3,0,0,1-.88-2.28v-.16a3.91,3.91,0,0,1,.37-1.71,2.75,2.75,0,0,1,1-1.16,2.93,2.93,0,0,1,1.54-.41,2.66,2.66,0,0,1,2.05.82,3.35,3.35,0,0,1,.75,2.33v.69h-4a1.59,1.59,0,0,0,.49,1,1.51,1.51,0,0,0,1.05.37,1.82,1.82,0,0,0,1.53-.71l.83.93a2.62,2.62,0,0,1-1,.85A3.37,3.37,0,0,1,721.87,112.12Zm-.19-5.21a1.08,1.08,0,0,0-.82.34,1.77,1.77,0,0,0-.4,1h2.35v-.14a1.3,1.3,0,0,0-.3-.87A1.12,1.12,0,0,0,721.68,106.91Zm5.92-1.25.06.73a2.23,2.23,0,0,1,1.82-.85,1.86,1.86,0,0,1,1.5.59,2.85,2.85,0,0,1,.5,1.77V112h-1.69v-4.06a1.06,1.06,0,0,0-.24-.77,1,1,0,0,0-.78-.25,1.16,1.16,0,0,0-1.07.61V112H726v-6.34Z" transform="translate(-44.07 0)"/>
  <rect class="cls-5" x="112.93" y="150" width="147" height="65"/>
  <path d="M209,183.51h-3.37V187h-1.76v-8.53h5.55v1.42h-3.79v2.21H209Zm5.6,2.84a2.13,2.13,0,0,1-1.73.77,2,2,0,0,1-1.56-.59,2.5,2.5,0,0,1-.55-1.72v-4.15h1.7v4.1q0,1,.9,1a1.22,1.22,0,0,0,1.18-.6v-4.49h1.7V187h-1.59Zm5.08-5.69.05.73a2.23,2.23,0,0,1,1.82-.85,1.86,1.86,0,0,1,1.5.59,2.79,2.79,0,0,1,.51,1.77V187h-1.7v-4.06a1.11,1.11,0,0,0-.23-.77,1,1,0,0,0-.78-.25,1.14,1.14,0,0,0-1.07.61V187h-1.7v-6.34Zm5.5,3.12a3.84,3.84,0,0,1,.66-2.36,2.2,2.2,0,0,1,1.83-.88,2,2,0,0,1,1.53.69V178h1.69v9h-1.52l-.09-.67a2,2,0,0,1-1.63.79,2.17,2.17,0,0,1-1.79-.88A4,4,0,0,1,225.16,183.78Zm1.69.13a2.56,2.56,0,0,0,.31,1.36,1,1,0,0,0,.91.48,1.15,1.15,0,0,0,1.11-.67v-2.5a1.13,1.13,0,0,0-1.1-.66C227.26,181.92,226.85,182.58,226.85,183.91Zm8.85,3.21a3.12,3.12,0,0,1-2.27-.86,3.05,3.05,0,0,1-.87-2.28v-.16a3.77,3.77,0,0,1,.37-1.71,2.67,2.67,0,0,1,1-1.16,3,3,0,0,1,1.55-.41,2.64,2.64,0,0,1,2,.82,3.35,3.35,0,0,1,.75,2.33v.69h-4a1.6,1.6,0,0,0,.5,1,1.48,1.48,0,0,0,1,.37,1.82,1.82,0,0,0,1.53-.71l.83.93a2.7,2.7,0,0,1-1,.85A3.45,3.45,0,0,1,235.7,187.12Zm-.19-5.21a1.1,1.1,0,0,0-.82.34,1.77,1.77,0,0,0-.4,1h2.36v-.14a1.26,1.26,0,0,0-.31-.87A1.1,1.1,0,0,0,235.51,181.91Zm7.93.34a4.82,4.82,0,0,0-.61-.05,1.25,1.25,0,0,0-1.26.65V187h-1.69v-6.34h1.6l0,.76a1.59,1.59,0,0,1,1.42-.88,1.77,1.77,0,0,1,.52.08Zm4.22,4.87a3.12,3.12,0,0,1-2.27-.86,3.05,3.05,0,0,1-.87-2.28v-.16a3.9,3.9,0,0,1,.36-1.71,2.75,2.75,0,0,1,1.05-1.16,3,3,0,0,1,1.55-.41,2.65,2.65,0,0,1,2,.82,3.35,3.35,0,0,1,.75,2.33v.69h-4a1.6,1.6,0,0,0,.5,1,1.47,1.47,0,0,0,1,.37,1.79,1.79,0,0,0,1.53-.71l.83.93a2.55,2.55,0,0,1-1,.85A3.37,3.37,0,0,1,247.66,187.12Zm-.19-5.21a1.08,1.08,0,0,0-.82.34,1.77,1.77,0,0,0-.4,1h2.35v-.14a1.21,1.21,0,0,0-.3-.87A1.12,1.12,0,0,0,247.47,181.91Zm5.93-1.25,0,.73a2.23,2.23,0,0,1,1.82-.85,1.86,1.86,0,0,1,1.5.59,2.73,2.73,0,0,1,.5,1.77V187h-1.69v-4.06a1.11,1.11,0,0,0-.23-.77,1,1,0,0,0-.78-.25,1.17,1.17,0,0,0-1.08.61V187H251.8v-6.34Z" transform="translate(-44.07 0)"/>
  <rect class="cls-1" x="269.93" y="150" width="147" height="65"/>
  <path d="M361,184v3h-1.76v-8.53h3.33a3.85,3.85,0,0,1,1.68.35,2.57,2.57,0,0,1,1.13,1,2.78,2.78,0,0,1,.39,1.47,2.45,2.45,0,0,1-.86,2,3.57,3.57,0,0,1-2.37.72Zm0-1.42h1.57a1.55,1.55,0,0,0,1.06-.33,1.21,1.21,0,0,0,.37-.94,1.44,1.44,0,0,0-.37-1,1.39,1.39,0,0,0-1-.4H361Zm10-.32a5,5,0,0,0-.61-.05,1.24,1.24,0,0,0-1.26.65V187h-1.7v-6.34h1.6l.05.76a1.56,1.56,0,0,1,1.41-.88,1.84,1.84,0,0,1,.53.08Zm.94,1.52a3.77,3.77,0,0,1,.36-1.68,2.69,2.69,0,0,1,1.05-1.14,3,3,0,0,1,1.59-.41,2.86,2.86,0,0,1,2.09.79,3.18,3.18,0,0,1,.91,2.13v.43a3.3,3.3,0,0,1-.82,2.35,2.85,2.85,0,0,1-2.18.88,2.89,2.89,0,0,1-2.2-.88,3.41,3.41,0,0,1-.81-2.39Zm1.69.12a2.43,2.43,0,0,0,.34,1.39,1.16,1.16,0,0,0,1,.47,1.11,1.11,0,0,0,1-.47,2.59,2.59,0,0,0,.34-1.51,2.33,2.33,0,0,0-.34-1.37,1.14,1.14,0,0,0-1-.49,1.13,1.13,0,0,0-1,.49A2.67,2.67,0,0,0,373.71,183.89Zm6.37,3.11v-5.1h-.94v-1.24h.94v-.29a2.38,2.38,0,0,1,.73-1.84,3,3,0,0,1,2.05-.65,6.82,6.82,0,0,1,1.92.34l-.25,1.4a7,7,0,0,0-.89-.21,3.66,3.66,0,0,0-.68-.06c-.79,0-1.18.35-1.18,1.05v.26H383v1.24h-1.25V187Zm5.49,0h-1.7v-6.34h1.7Zm3.79,0h-1.7v-9h1.7Zm4.92.12a3.15,3.15,0,0,1-2.28-.86,3.05,3.05,0,0,1-.87-2.28v-.16a3.77,3.77,0,0,1,.37-1.71,2.67,2.67,0,0,1,1-1.16,3,3,0,0,1,1.55-.41,2.64,2.64,0,0,1,2,.82,3.35,3.35,0,0,1,.75,2.33v.69h-4a1.59,1.59,0,0,0,.49,1,1.5,1.5,0,0,0,1.05.37,1.82,1.82,0,0,0,1.53-.71l.83.93a2.7,2.7,0,0,1-1,.85A3.44,3.44,0,0,1,394.28,187.12Zm-.2-5.21a1.1,1.1,0,0,0-.82.34,1.77,1.77,0,0,0-.4,1h2.36v-.14a1.26,1.26,0,0,0-.31-.87A1.1,1.1,0,0,0,394.08,181.91Zm7.93.34a4.82,4.82,0,0,0-.61-.05,1.25,1.25,0,0,0-1.26.65V187h-1.69v-6.34h1.6l.05.76a1.56,1.56,0,0,1,1.41-.88,1.84,1.84,0,0,1,.53.08Zm4.22,4.87a3.12,3.12,0,0,1-2.27-.86,3.05,3.05,0,0,1-.87-2.28v-.16a3.77,3.77,0,0,1,.37-1.71,2.67,2.67,0,0,1,1-1.16,3,3,0,0,1,1.55-.41,2.64,2.64,0,0,1,2,.82,3.35,3.35,0,0,1,.75,2.33v.69h-4a1.6,1.6,0,0,0,.5,1,1.48,1.48,0,0,0,1.05.37,1.79,1.79,0,0,0,1.52-.71l.84.93a2.66,2.66,0,0,1-1,.85A3.37,3.37,0,0,1,406.23,187.12Zm-.19-5.21a1.08,1.08,0,0,0-.82.34,1.77,1.77,0,0,0-.4,1h2.36v-.14a1.26,1.26,0,0,0-.31-.87A1.1,1.1,0,0,0,406,181.91Zm5.93-1.25,0,.73a2.23,2.23,0,0,1,1.82-.85,1.86,1.86,0,0,1,1.5.59,2.79,2.79,0,0,1,.51,1.77V187h-1.7v-4.06a1.11,1.11,0,0,0-.23-.77,1,1,0,0,0-.78-.25,1.14,1.14,0,0,0-1.07.61V187h-1.7v-6.34Z" transform="translate(-44.07 0)"/>
  <rect class="cls-1" x="426.93" y="150" width="147" height="65"/>
  <path d="M518,184v3h-1.76v-8.53h3.33a3.85,3.85,0,0,1,1.68.35,2.57,2.57,0,0,1,1.13,1,2.78,2.78,0,0,1,.39,1.47,2.45,2.45,0,0,1-.86,2,3.57,3.57,0,0,1-2.37.72Zm0-1.42h1.57a1.55,1.55,0,0,0,1.06-.33,1.21,1.21,0,0,0,.37-.94,1.44,1.44,0,0,0-.37-1,1.39,1.39,0,0,0-1-.4H518Zm10-.32a5.13,5.13,0,0,0-.61-.05,1.25,1.25,0,0,0-1.26.65V187h-1.7v-6.34h1.6l0,.76a1.56,1.56,0,0,1,1.41-.88,1.84,1.84,0,0,1,.53.08Zm.94,1.52a3.77,3.77,0,0,1,.36-1.68,2.69,2.69,0,0,1,1-1.14,3,3,0,0,1,1.59-.41,2.86,2.86,0,0,1,2.09.79,3.18,3.18,0,0,1,.91,2.13v.43a3.3,3.3,0,0,1-.82,2.35,3.15,3.15,0,0,1-4.37,0,3.37,3.37,0,0,1-.82-2.39Zm1.69.12a2.43,2.43,0,0,0,.34,1.39,1.14,1.14,0,0,0,1,.47,1.11,1.11,0,0,0,1-.47,2.59,2.59,0,0,0,.34-1.51,2.33,2.33,0,0,0-.34-1.37,1.14,1.14,0,0,0-1-.49,1.13,1.13,0,0,0-1,.49A2.67,2.67,0,0,0,530.71,183.89Zm6.37,3.11v-5.1h-.94v-1.24h.94v-.29a2.38,2.38,0,0,1,.73-1.84,3,3,0,0,1,2.05-.65,6.76,6.76,0,0,1,1.92.34l-.25,1.4a7,7,0,0,0-.89-.21,3.58,3.58,0,0,0-.68-.06c-.79,0-1.18.35-1.18,1.05v.26H540v1.24h-1.25V187Zm5.49,0h-1.7v-6.34h1.7Zm3.79,0h-1.7v-9h1.7Zm4.92.12a3.15,3.15,0,0,1-2.28-.86,3.05,3.05,0,0,1-.87-2.28v-.16a3.77,3.77,0,0,1,.37-1.71,2.67,2.67,0,0,1,1-1.16,3,3,0,0,1,1.55-.41,2.62,2.62,0,0,1,2,.82,3.35,3.35,0,0,1,.75,2.33v.69h-4a1.59,1.59,0,0,0,.49,1,1.51,1.51,0,0,0,1,.37,1.82,1.82,0,0,0,1.53-.71l.83.93a2.7,2.7,0,0,1-1,.85A3.44,3.44,0,0,1,551.28,187.12Zm-.2-5.21a1.1,1.1,0,0,0-.82.34,1.77,1.77,0,0,0-.4,1h2.36v-.14a1.26,1.26,0,0,0-.31-.87A1.1,1.1,0,0,0,551.08,181.91Zm7.93.34a4.82,4.82,0,0,0-.61-.05,1.25,1.25,0,0,0-1.26.65V187h-1.69v-6.34h1.6l.05.76a1.56,1.56,0,0,1,1.41-.88,1.84,1.84,0,0,1,.53.08Zm4.22,4.87a3.12,3.12,0,0,1-2.27-.86,3.05,3.05,0,0,1-.87-2.28v-.16a3.77,3.77,0,0,1,.37-1.71,2.67,2.67,0,0,1,1-1.16,3,3,0,0,1,1.55-.41,2.65,2.65,0,0,1,2,.82,3.35,3.35,0,0,1,.75,2.33v.69h-4a1.6,1.6,0,0,0,.5,1,1.47,1.47,0,0,0,1,.37,1.79,1.79,0,0,0,1.53-.71l.84.93a2.66,2.66,0,0,1-1,.85A3.37,3.37,0,0,1,563.23,187.12Zm-.19-5.21a1.08,1.08,0,0,0-.82.34,1.77,1.77,0,0,0-.4,1h2.36v-.14a1.26,1.26,0,0,0-.31-.87A1.1,1.1,0,0,0,563,181.91Zm5.93-1.25,0,.73a2.23,2.23,0,0,1,1.82-.85,1.86,1.86,0,0,1,1.5.59,2.73,2.73,0,0,1,.5,1.77V187h-1.69v-4.06a1.11,1.11,0,0,0-.23-.77,1,1,0,0,0-.78-.25,1.14,1.14,0,0,0-1.07.61V187h-1.7v-6.34Z" transform="translate(-44.07 0)"/>
  <rect class="cls-2" x="583.93" y="150" width="147" height="65"/>
  <path class="cls-3" d="M674.35,185.24h-3.08l-.59,1.76h-1.87l3.18-8.53h1.63l3.19,8.53h-1.87Zm-2.61-1.42h2.13l-1.07-3.2Zm6.82,3.18v-5.1h-.95v-1.24h.95v-.54a2.17,2.17,0,0,1,.61-1.65,2.34,2.34,0,0,1,1.71-.59,4.48,4.48,0,0,1,.87.11l0,1.32a1.9,1.9,0,0,0-.52-.06c-.63,0-1,.3-1,.9v.51h1.26v1.24h-1.26V187Zm7.87-1.75a.54.54,0,0,0-.31-.49,3.27,3.27,0,0,0-1-.32c-1.51-.32-2.27-1-2.27-1.92a1.73,1.73,0,0,1,.7-1.41,2.82,2.82,0,0,1,1.83-.57,3,3,0,0,1,1.93.57,1.78,1.78,0,0,1,.73,1.48h-1.7a.81.81,0,0,0-.23-.6,1.24,1.24,0,0,0-1.39-.05.62.62,0,0,0-.24.5.53.53,0,0,0,.27.45,2.81,2.81,0,0,0,.9.3,7.23,7.23,0,0,1,1.06.28,1.76,1.76,0,0,1,1.35,1.71,1.65,1.65,0,0,1-.75,1.4,3.16,3.16,0,0,1-1.92.54,3.56,3.56,0,0,1-1.42-.28,2.5,2.5,0,0,1-1-.78,1.82,1.82,0,0,1-.36-1.08h1.61a.9.9,0,0,0,.33.7,1.35,1.35,0,0,0,.84.24,1.25,1.25,0,0,0,.73-.19A.56.56,0,0,0,686.43,185.25Zm5.37-6.15v1.56h1.08v1.24H691.8v3.17a.75.75,0,0,0,.13.5.7.7,0,0,0,.52.15,2.53,2.53,0,0,0,.5,0V187a3.26,3.26,0,0,1-1,.16,1.61,1.61,0,0,1-1.81-1.8V181.9h-.93v-1.24h.93V179.1Zm6.42,7.25a2.12,2.12,0,0,1-1.73.77,2,2,0,0,1-1.56-.59,2.49,2.49,0,0,1-.54-1.72v-4.15h1.69v4.1q0,1,.9,1a1.22,1.22,0,0,0,1.18-.6v-4.49h1.7V187h-1.59Zm3.26-2.57a3.84,3.84,0,0,1,.66-2.36,2.18,2.18,0,0,1,1.82-.88,1.94,1.94,0,0,1,1.53.69V178h1.7v9h-1.53l-.08-.67a2,2,0,0,1-1.63.79,2.17,2.17,0,0,1-1.8-.88A4,4,0,0,1,701.48,183.78Zm1.69.13a2.56,2.56,0,0,0,.31,1.36,1,1,0,0,0,.9.48,1.13,1.13,0,0,0,1.11-.67v-2.5a1.12,1.12,0,0,0-1.09-.66C703.58,181.92,703.17,182.58,703.17,183.91Zm8.85,3.21a3.11,3.11,0,0,1-2.27-.86,3.05,3.05,0,0,1-.87-2.28v-.16a3.9,3.9,0,0,1,.36-1.71,2.75,2.75,0,0,1,1-1.16,3,3,0,0,1,1.54-.41,2.66,2.66,0,0,1,2,.82,3.35,3.35,0,0,1,.75,2.33v.69h-4a1.64,1.64,0,0,0,.49,1,1.51,1.51,0,0,0,1,.37,1.82,1.82,0,0,0,1.53-.71l.83.93a2.55,2.55,0,0,1-1,.85A3.37,3.37,0,0,1,712,187.12Zm-.19-5.21a1.08,1.08,0,0,0-.82.34,1.77,1.77,0,0,0-.4,1H713v-.14a1.26,1.26,0,0,0-.3-.87A1.12,1.12,0,0,0,711.83,181.91Zm7.93.34a5,5,0,0,0-.61-.05,1.25,1.25,0,0,0-1.26.65V187H716.2v-6.34h1.59l.05.76a1.56,1.56,0,0,1,1.41-.88,1.78,1.78,0,0,1,.53.08Zm4.22,4.87a3.11,3.11,0,0,1-2.27-.86,3,3,0,0,1-.88-2.28v-.16a3.91,3.91,0,0,1,.37-1.71,2.73,2.73,0,0,1,1-1.16,3,3,0,0,1,1.55-.41,2.66,2.66,0,0,1,2.05.82,3.35,3.35,0,0,1,.75,2.33v.69h-4a1.59,1.59,0,0,0,.49,1,1.51,1.51,0,0,0,1.05.37,1.82,1.82,0,0,0,1.53-.71l.83.93a2.62,2.62,0,0,1-1,.85A3.37,3.37,0,0,1,724,187.12Zm-.19-5.21a1.08,1.08,0,0,0-.82.34,1.7,1.7,0,0,0-.4,1h2.35v-.14a1.3,1.3,0,0,0-.3-.87A1.12,1.12,0,0,0,723.79,181.91Zm5.92-1.25,0,.73a2.26,2.26,0,0,1,1.83-.85,1.86,1.86,0,0,1,1.5.59,2.85,2.85,0,0,1,.5,1.77V187H731.9v-4.06a1.06,1.06,0,0,0-.24-.77,1,1,0,0,0-.78-.25,1.16,1.16,0,0,0-1.07.61V187h-1.69v-6.34Z" transform="translate(-44.07 0)"/>
  <rect class="cls-5" x="112.93" y="225" width="147" height="65"/>
  <path d="M209,258.51h-3.37V262h-1.76v-8.53h5.55v1.42h-3.79v2.21H209Zm5.6,2.84a2.13,2.13,0,0,1-1.73.77,2,2,0,0,1-1.56-.59,2.5,2.5,0,0,1-.55-1.72v-4.15h1.7v4.1q0,1,.9,1a1.22,1.22,0,0,0,1.18-.6v-4.49h1.7V262h-1.59Zm5.08-5.69.05.73a2.23,2.23,0,0,1,1.82-.85,1.86,1.86,0,0,1,1.5.59,2.79,2.79,0,0,1,.51,1.77V262h-1.7v-4.06a1.11,1.11,0,0,0-.23-.77,1,1,0,0,0-.78-.25,1.14,1.14,0,0,0-1.07.61V262h-1.7v-6.34Zm5.5,3.12a3.84,3.84,0,0,1,.66-2.36,2.2,2.2,0,0,1,1.83-.88,2,2,0,0,1,1.53.69V253h1.69v9h-1.52l-.09-.67a2,2,0,0,1-1.63.79,2.17,2.17,0,0,1-1.79-.88A4,4,0,0,1,225.16,258.78Zm1.69.13a2.56,2.56,0,0,0,.31,1.36,1,1,0,0,0,.91.48,1.15,1.15,0,0,0,1.11-.67v-2.5a1.13,1.13,0,0,0-1.1-.66C227.26,256.92,226.85,257.58,226.85,258.91Zm8.85,3.21a3.12,3.12,0,0,1-2.27-.86,3.05,3.05,0,0,1-.87-2.28v-.16a3.77,3.77,0,0,1,.37-1.71,2.67,2.67,0,0,1,1-1.16,3,3,0,0,1,1.55-.41,2.64,2.64,0,0,1,2,.82,3.35,3.35,0,0,1,.75,2.33v.69h-4a1.6,1.6,0,0,0,.5,1,1.48,1.48,0,0,0,1,.37,1.82,1.82,0,0,0,1.53-.71l.83.93a2.7,2.7,0,0,1-1,.85A3.45,3.45,0,0,1,235.7,262.12Zm-.19-5.21a1.1,1.1,0,0,0-.82.34,1.77,1.77,0,0,0-.4,1h2.36v-.14a1.26,1.26,0,0,0-.31-.87A1.1,1.1,0,0,0,235.51,256.91Zm7.93.34a4.82,4.82,0,0,0-.61-.05,1.25,1.25,0,0,0-1.26.65V262h-1.69v-6.34h1.6l0,.76a1.59,1.59,0,0,1,1.42-.88,1.77,1.77,0,0,1,.52.08Zm4.22,4.87a3.12,3.12,0,0,1-2.27-.86,3.05,3.05,0,0,1-.87-2.28v-.16a3.9,3.9,0,0,1,.36-1.71,2.75,2.75,0,0,1,1.05-1.16,3,3,0,0,1,1.55-.41,2.65,2.65,0,0,1,2,.82,3.35,3.35,0,0,1,.75,2.33v.69h-4a1.6,1.6,0,0,0,.5,1,1.47,1.47,0,0,0,1,.37,1.79,1.79,0,0,0,1.53-.71l.83.93a2.55,2.55,0,0,1-1,.85A3.37,3.37,0,0,1,247.66,262.12Zm-.19-5.21a1.08,1.08,0,0,0-.82.34,1.77,1.77,0,0,0-.4,1h2.35v-.14a1.21,1.21,0,0,0-.3-.87A1.12,1.12,0,0,0,247.47,256.91Zm5.93-1.25,0,.73a2.23,2.23,0,0,1,1.82-.85,1.86,1.86,0,0,1,1.5.59,2.73,2.73,0,0,1,.5,1.77V262h-1.69v-4.06a1.11,1.11,0,0,0-.23-.77,1,1,0,0,0-.78-.25,1.17,1.17,0,0,0-1.08.61V262H251.8v-6.34Z" transform="translate(-44.07 0)"/>
  <rect class="cls-5" x="269.93" y="225" width="147" height="65"/>
  <path d="M366,258.51h-3.37V262h-1.76v-8.53h5.55v1.42h-3.79v2.21H366Zm5.6,2.84a2.13,2.13,0,0,1-1.73.77,2,2,0,0,1-1.56-.59,2.5,2.5,0,0,1-.55-1.72v-4.15h1.7v4.1q0,1,.9,1a1.22,1.22,0,0,0,1.18-.6v-4.49h1.7V262h-1.59Zm5.08-5.69,0,.73a2.23,2.23,0,0,1,1.82-.85,1.86,1.86,0,0,1,1.5.59,2.79,2.79,0,0,1,.51,1.77V262h-1.7v-4.06a1.11,1.11,0,0,0-.23-.77,1,1,0,0,0-.78-.25,1.14,1.14,0,0,0-1.07.61V262h-1.7v-6.34Zm5.5,3.12a3.84,3.84,0,0,1,.66-2.36,2.2,2.2,0,0,1,1.82-.88,1.94,1.94,0,0,1,1.53.69V253h1.7v9h-1.52l-.09-.67a2,2,0,0,1-1.63.79,2.2,2.2,0,0,1-1.8-.88A4,4,0,0,1,382.16,258.78Zm1.69.13a2.46,2.46,0,0,0,.32,1.36,1,1,0,0,0,.9.48,1.13,1.13,0,0,0,1.1-.67v-2.5a1.11,1.11,0,0,0-1.09-.66C384.26,256.92,383.85,257.58,383.85,258.91Zm8.85,3.21a3.12,3.12,0,0,1-2.27-.86,3.05,3.05,0,0,1-.87-2.28v-.16a3.77,3.77,0,0,1,.37-1.71,2.67,2.67,0,0,1,1-1.16,3,3,0,0,1,1.55-.41,2.64,2.64,0,0,1,2,.82,3.35,3.35,0,0,1,.75,2.33v.69h-4a1.6,1.6,0,0,0,.5,1,1.48,1.48,0,0,0,1.05.37,1.82,1.82,0,0,0,1.53-.71l.83.93a2.7,2.7,0,0,1-1,.85A3.45,3.45,0,0,1,392.7,262.12Zm-.19-5.21a1.08,1.08,0,0,0-.82.34,1.77,1.77,0,0,0-.4,1h2.36v-.14a1.26,1.26,0,0,0-.31-.87A1.1,1.1,0,0,0,392.51,256.91Zm7.93.34a4.82,4.82,0,0,0-.61-.05,1.25,1.25,0,0,0-1.26.65V262h-1.69v-6.34h1.6l0,.76a1.57,1.57,0,0,1,1.42-.88,1.77,1.77,0,0,1,.52.08Zm4.22,4.87a3.12,3.12,0,0,1-2.27-.86,3.05,3.05,0,0,1-.87-2.28v-.16a3.77,3.77,0,0,1,.37-1.71,2.67,2.67,0,0,1,1-1.16,3,3,0,0,1,1.55-.41,2.65,2.65,0,0,1,2,.82,3.35,3.35,0,0,1,.75,2.33v.69h-4a1.6,1.6,0,0,0,.5,1,1.47,1.47,0,0,0,1,.37,1.79,1.79,0,0,0,1.53-.71l.84.93a2.66,2.66,0,0,1-1,.85A3.37,3.37,0,0,1,404.66,262.12Zm-.19-5.21a1.08,1.08,0,0,0-.82.34,1.77,1.77,0,0,0-.4,1h2.36v-.14a1.26,1.26,0,0,0-.31-.87A1.1,1.1,0,0,0,404.47,256.91Zm5.92-1.25.06.73a2.23,2.23,0,0,1,1.82-.85,1.86,1.86,0,0,1,1.5.59,2.73,2.73,0,0,1,.5,1.77V262h-1.69v-4.06a1.11,1.11,0,0,0-.23-.77,1,1,0,0,0-.78-.25,1.17,1.17,0,0,0-1.08.61V262H408.8v-6.34Z" transform="translate(-44.07 0)"/>
  <rect class="cls-1" x="426.93" y="225" width="147" height="65"/>
  <path d="M518,259v3h-1.76v-8.53h3.33a3.85,3.85,0,0,1,1.68.35,2.57,2.57,0,0,1,1.13,1,2.78,2.78,0,0,1,.39,1.47,2.45,2.45,0,0,1-.86,2,3.57,3.57,0,0,1-2.37.72Zm0-1.42h1.57a1.55,1.55,0,0,0,1.06-.33,1.21,1.21,0,0,0,.37-.94,1.44,1.44,0,0,0-.37-1,1.39,1.39,0,0,0-1-.4H518Zm10-.32a5.13,5.13,0,0,0-.61-.05,1.25,1.25,0,0,0-1.26.65V262h-1.7v-6.34h1.6l0,.76a1.56,1.56,0,0,1,1.41-.88,1.84,1.84,0,0,1,.53.08Zm.94,1.52a3.77,3.77,0,0,1,.36-1.68,2.69,2.69,0,0,1,1-1.14,3,3,0,0,1,1.59-.41,2.86,2.86,0,0,1,2.09.79,3.18,3.18,0,0,1,.91,2.13v.43a3.3,3.3,0,0,1-.82,2.35,3.15,3.15,0,0,1-4.37,0,3.37,3.37,0,0,1-.82-2.39Zm1.69.12a2.43,2.43,0,0,0,.34,1.39,1.14,1.14,0,0,0,1,.47,1.11,1.11,0,0,0,1-.47,2.59,2.59,0,0,0,.34-1.51,2.33,2.33,0,0,0-.34-1.37,1.14,1.14,0,0,0-1-.49,1.13,1.13,0,0,0-1,.49A2.67,2.67,0,0,0,530.71,258.89Zm6.37,3.11v-5.1h-.94v-1.24h.94v-.29a2.38,2.38,0,0,1,.73-1.84,3,3,0,0,1,2.05-.65,6.76,6.76,0,0,1,1.92.34l-.25,1.4a7,7,0,0,0-.89-.21,3.58,3.58,0,0,0-.68-.06c-.79,0-1.18.35-1.18,1.05v.26H540v1.24h-1.25V262Zm5.49,0h-1.7v-6.34h1.7Zm3.79,0h-1.7v-9h1.7Zm4.92.12a3.15,3.15,0,0,1-2.28-.86,3.05,3.05,0,0,1-.87-2.28v-.16a3.77,3.77,0,0,1,.37-1.71,2.67,2.67,0,0,1,1-1.16,3,3,0,0,1,1.55-.41,2.62,2.62,0,0,1,2,.82,3.35,3.35,0,0,1,.75,2.33v.69h-4a1.59,1.59,0,0,0,.49,1,1.51,1.51,0,0,0,1,.37,1.82,1.82,0,0,0,1.53-.71l.83.93a2.7,2.7,0,0,1-1,.85A3.44,3.44,0,0,1,551.28,262.12Zm-.2-5.21a1.1,1.1,0,0,0-.82.34,1.77,1.77,0,0,0-.4,1h2.36v-.14a1.26,1.26,0,0,0-.31-.87A1.1,1.1,0,0,0,551.08,256.91Zm7.93.34a4.82,4.82,0,0,0-.61-.05,1.25,1.25,0,0,0-1.26.65V262h-1.69v-6.34h1.6l.05.76a1.56,1.56,0,0,1,1.41-.88,1.84,1.84,0,0,1,.53.08Zm4.22,4.87a3.12,3.12,0,0,1-2.27-.86,3.05,3.05,0,0,1-.87-2.28v-.16a3.77,3.77,0,0,1,.37-1.71,2.67,2.67,0,0,1,1-1.16,3,3,0,0,1,1.55-.41,2.65,2.65,0,0,1,2,.82,3.35,3.35,0,0,1,.75,2.33v.69h-4a1.6,1.6,0,0,0,.5,1,1.47,1.47,0,0,0,1,.37,1.79,1.79,0,0,0,1.53-.71l.84.93a2.66,2.66,0,0,1-1,.85A3.37,3.37,0,0,1,563.23,262.12Zm-.19-5.21a1.08,1.08,0,0,0-.82.34,1.77,1.77,0,0,0-.4,1h2.36v-.14a1.26,1.26,0,0,0-.31-.87A1.1,1.1,0,0,0,563,256.91Zm5.93-1.25,0,.73a2.23,2.23,0,0,1,1.82-.85,1.86,1.86,0,0,1,1.5.59,2.73,2.73,0,0,1,.5,1.77V262h-1.69v-4.06a1.11,1.11,0,0,0-.23-.77,1,1,0,0,0-.78-.25,1.14,1.14,0,0,0-1.07.61V262h-1.7v-6.34Z" transform="translate(-44.07 0)"/>
  <rect class="cls-1" x="583.93" y="225" width="147" height="65"/>
  <path d="M675,259v3h-1.76v-8.53h3.33a3.85,3.85,0,0,1,1.68.35,2.57,2.57,0,0,1,1.13,1,2.78,2.78,0,0,1,.39,1.47,2.45,2.45,0,0,1-.86,2,3.57,3.57,0,0,1-2.37.72Zm0-1.42h1.57a1.55,1.55,0,0,0,1.06-.33,1.21,1.21,0,0,0,.37-.94,1.44,1.44,0,0,0-.37-1,1.39,1.39,0,0,0-1-.4H675Zm10-.32a5.13,5.13,0,0,0-.61-.05,1.25,1.25,0,0,0-1.26.65V262h-1.7v-6.34h1.6l0,.76a1.56,1.56,0,0,1,1.41-.88,1.84,1.84,0,0,1,.53.08Zm.94,1.52a3.77,3.77,0,0,1,.36-1.68,2.69,2.69,0,0,1,1-1.14,3,3,0,0,1,1.59-.41,2.86,2.86,0,0,1,2.09.79,3.18,3.18,0,0,1,.91,2.13v.43a3.3,3.3,0,0,1-.82,2.35,3.15,3.15,0,0,1-4.37,0,3.37,3.37,0,0,1-.82-2.39Zm1.69.12a2.43,2.43,0,0,0,.34,1.39,1.14,1.14,0,0,0,1,.47,1.11,1.11,0,0,0,1-.47,2.59,2.59,0,0,0,.34-1.51,2.33,2.33,0,0,0-.34-1.37,1.14,1.14,0,0,0-1-.49,1.13,1.13,0,0,0-1,.49A2.67,2.67,0,0,0,687.71,258.89Zm6.37,3.11v-5.1h-.94v-1.24h.94v-.29a2.38,2.38,0,0,1,.73-1.84,3,3,0,0,1,2.05-.65,6.76,6.76,0,0,1,1.92.34l-.25,1.4a7,7,0,0,0-.89-.21,3.58,3.58,0,0,0-.68-.06c-.79,0-1.18.35-1.18,1.05v.26H697v1.24h-1.25V262Zm5.49,0h-1.7v-6.34h1.7Zm3.79,0h-1.7v-9h1.7Zm4.92.12a3.15,3.15,0,0,1-2.28-.86,3.05,3.05,0,0,1-.87-2.28v-.16a3.77,3.77,0,0,1,.37-1.71,2.67,2.67,0,0,1,1-1.16,3,3,0,0,1,1.55-.41,2.62,2.62,0,0,1,2,.82,3.35,3.35,0,0,1,.75,2.33v.69h-4a1.59,1.59,0,0,0,.49,1,1.51,1.51,0,0,0,1,.37,1.82,1.82,0,0,0,1.53-.71l.83.93a2.7,2.7,0,0,1-1,.85A3.44,3.44,0,0,1,708.28,262.12Zm-.2-5.21a1.1,1.1,0,0,0-.82.34,1.77,1.77,0,0,0-.4,1h2.36v-.14a1.26,1.26,0,0,0-.31-.87A1.1,1.1,0,0,0,708.08,256.91Zm7.93.34a4.82,4.82,0,0,0-.61-.05,1.25,1.25,0,0,0-1.26.65V262h-1.69v-6.34h1.6l.05.76a1.56,1.56,0,0,1,1.41-.88,1.84,1.84,0,0,1,.53.08Zm4.22,4.87a3.12,3.12,0,0,1-2.27-.86,3.05,3.05,0,0,1-.87-2.28v-.16a3.77,3.77,0,0,1,.37-1.71,2.67,2.67,0,0,1,1-1.16,3,3,0,0,1,1.55-.41,2.65,2.65,0,0,1,2,.82,3.35,3.35,0,0,1,.75,2.33v.69h-4a1.6,1.6,0,0,0,.5,1,1.47,1.47,0,0,0,1,.37,1.79,1.79,0,0,0,1.53-.71l.84.93a2.66,2.66,0,0,1-1,.85A3.37,3.37,0,0,1,720.23,262.12Zm-.19-5.21a1.08,1.08,0,0,0-.82.34,1.77,1.77,0,0,0-.4,1h2.36v-.14a1.26,1.26,0,0,0-.31-.87A1.1,1.1,0,0,0,720,256.91Zm5.93-1.25,0,.73a2.23,2.23,0,0,1,1.82-.85,1.86,1.86,0,0,1,1.5.59,2.73,2.73,0,0,1,.5,1.77V262h-1.69v-4.06a1.11,1.11,0,0,0-.23-.77,1,1,0,0,0-.78-.25,1.14,1.14,0,0,0-1.07.61V262h-1.7v-6.34Z" transform="translate(-44.07 0)"/>
  <path d="M196.3,307.88h-1.4V311h-1.76v-8.53h3.17a3.56,3.56,0,0,1,2.33.67,2.33,2.33,0,0,1,.82,1.91,2.37,2.37,0,0,1-1.52,2.38l1.84,3.49V311H197.9Zm-1.4-1.43h1.42a1.46,1.46,0,0,0,1-.33,1.23,1.23,0,0,0,.36-.93,1.27,1.27,0,0,0-.34-.95,1.43,1.43,0,0,0-1.05-.35H194.9Zm9.31,4.67a3.11,3.11,0,0,1-2.27-.86,3,3,0,0,1-.88-2.28v-.16a3.91,3.91,0,0,1,.37-1.71,2.75,2.75,0,0,1,1-1.16,3,3,0,0,1,1.54-.41,2.66,2.66,0,0,1,2,.82,3.35,3.35,0,0,1,.75,2.33v.69h-4a1.64,1.64,0,0,0,.49,1,1.51,1.51,0,0,0,1,.37,1.82,1.82,0,0,0,1.53-.71l.83.93a2.55,2.55,0,0,1-1,.85A3.37,3.37,0,0,1,204.21,311.12Zm-.19-5.21a1.08,1.08,0,0,0-.82.34,1.77,1.77,0,0,0-.4,1h2.35v-.14a1.26,1.26,0,0,0-.3-.87A1.12,1.12,0,0,0,204,305.91Zm10.07,2a3.79,3.79,0,0,1-.67,2.35,2.14,2.14,0,0,1-1.79.88,2,2,0,0,1-1.55-.67v3h-1.7v-8.78H210l0,.62a2,2,0,0,1,1.61-.74,2.14,2.14,0,0,1,1.82.87,3.86,3.86,0,0,1,.65,2.39Zm-1.69-.12a2.5,2.5,0,0,0-.32-1.37,1,1,0,0,0-.91-.48,1.1,1.1,0,0,0-1.09.61v2.59a1.12,1.12,0,0,0,1.1.63C212,309.75,212.4,309.09,212.4,307.77Zm6.91-1.52a4.82,4.82,0,0,0-.61-.05,1.25,1.25,0,0,0-1.26.65V311h-1.69v-6.34h1.6l0,.76a1.56,1.56,0,0,1,1.41-.88,1.78,1.78,0,0,1,.53.08Zm.94,1.52a3.77,3.77,0,0,1,.37-1.68,2.67,2.67,0,0,1,1-1.14,3.08,3.08,0,0,1,1.59-.41,2.86,2.86,0,0,1,2.09.79,3.13,3.13,0,0,1,.91,2.13v.43a3.34,3.34,0,0,1-.81,2.35,3.17,3.17,0,0,1-4.38,0,3.41,3.41,0,0,1-.82-2.39Zm1.7.12a2.36,2.36,0,0,0,.34,1.39,1.13,1.13,0,0,0,1,.47,1.11,1.11,0,0,0,1-.47,2.58,2.58,0,0,0,.35-1.51,2.33,2.33,0,0,0-.35-1.37,1.13,1.13,0,0,0-1-.49,1.1,1.1,0,0,0-1,.49A2.58,2.58,0,0,0,222,307.89Zm5.69-.11a3.84,3.84,0,0,1,.66-2.36,2.18,2.18,0,0,1,1.82-.88,1.94,1.94,0,0,1,1.53.69V302h1.7v9h-1.53l-.08-.67a2,2,0,0,1-1.63.79,2.2,2.2,0,0,1-1.8-.88A4,4,0,0,1,227.64,307.78Zm1.69.13a2.56,2.56,0,0,0,.31,1.36,1,1,0,0,0,.91.48,1.13,1.13,0,0,0,1.1-.67v-2.5a1.11,1.11,0,0,0-1.09-.66C229.74,305.92,229.33,306.58,229.33,307.91Zm9.73,2.44a2.12,2.12,0,0,1-1.73.77,2,2,0,0,1-1.56-.59,2.5,2.5,0,0,1-.55-1.72v-4.15h1.7v4.1q0,1,.9,1a1.22,1.22,0,0,0,1.18-.6v-4.49h1.7V311h-1.59Zm6.16-.6a1.08,1.08,0,0,0,.76-.26.92.92,0,0,0,.3-.68h1.59a2.15,2.15,0,0,1-.35,1.18,2.33,2.33,0,0,1-1,.83,2.91,2.91,0,0,1-1.32.3,2.77,2.77,0,0,1-2.15-.86,3.47,3.47,0,0,1-.78-2.4v-.11a3.37,3.37,0,0,1,.78-2.33,3,3,0,0,1,4-.2,2.39,2.39,0,0,1,.73,1.8h-1.59a1.19,1.19,0,0,0-.3-.8,1.06,1.06,0,0,0-.77-.31,1,1,0,0,0-.9.44,2.47,2.47,0,0,0-.3,1.39v.18a2.49,2.49,0,0,0,.3,1.4A1,1,0,0,0,245.22,309.75Zm6.24-6.65v1.56h1.09v1.24h-1.09v3.17a.75.75,0,0,0,.14.5.69.69,0,0,0,.52.15,2.43,2.43,0,0,0,.49,0V311a3.2,3.2,0,0,1-1,.16,1.62,1.62,0,0,1-1.82-1.8V305.9h-.92v-1.24h.92V303.1Zm4.42,7.9h-1.7v-6.34h1.7Zm-1.8-8a.85.85,0,0,1,.25-.63,1,1,0,0,1,.7-.24,1,1,0,0,1,.69.24.86.86,0,0,1,.26.63.8.8,0,0,1-.27.63.91.91,0,0,1-.68.25.93.93,0,0,1-.69-.25A.83.83,0,0,1,254.08,303Zm6.72,8.1a3.15,3.15,0,0,1-2.28-.86,3.05,3.05,0,0,1-.87-2.28v-.16a3.77,3.77,0,0,1,.37-1.71,2.73,2.73,0,0,1,1-1.16,3,3,0,0,1,1.55-.41,2.62,2.62,0,0,1,2,.82,3.35,3.35,0,0,1,.75,2.33v.69h-4a1.59,1.59,0,0,0,.49,1,1.51,1.51,0,0,0,1.05.37,1.82,1.82,0,0,0,1.53-.71l.83.93a2.62,2.62,0,0,1-1,.85A3.41,3.41,0,0,1,260.8,311.12Zm-.2-5.21a1.1,1.1,0,0,0-.82.34,1.76,1.76,0,0,0-.39,1h2.35v-.14a1.3,1.3,0,0,0-.3-.87A1.14,1.14,0,0,0,260.6,305.91Zm4.83,5.09v-5.1h-.94v-1.24h.94v-.54a2.2,2.2,0,0,1,.61-1.65,2.37,2.37,0,0,1,1.72-.59,4.48,4.48,0,0,1,.86.11v1.32a2,2,0,0,0-.52-.06q-1,0-1,.9v.51h1.26v1.24h-1.26V311Z" transform="translate(-44.07 0)"/>
  <path d="M344.79,307.53a9.24,9.24,0,0,1,.35-2.55,6.65,6.65,0,0,1,1.06-2.15,3.94,3.94,0,0,1,1.51-1.3l.33.91a4.15,4.15,0,0,0-1.34,2,9.09,9.09,0,0,0-.48,3.1v.18a9.09,9.09,0,0,0,.48,3.1,4.11,4.11,0,0,0,1.34,2l-.33.9a4,4,0,0,1-1.49-1.27,7,7,0,0,1-1.05-2.09,8.79,8.79,0,0,1-.38-2.47Zm8,.35h-1.4V311h-1.76v-8.53h3.17a3.56,3.56,0,0,1,2.33.67,2.33,2.33,0,0,1,.82,1.91,2.37,2.37,0,0,1-1.52,2.38l1.85,3.49V311H354.4Zm-1.4-1.43h1.42a1.46,1.46,0,0,0,1-.33,1.23,1.23,0,0,0,.37-.93,1.28,1.28,0,0,0-.35-.95,1.43,1.43,0,0,0-1.05-.35H351.4Zm9.31,4.67a3.11,3.11,0,0,1-2.27-.86,3.05,3.05,0,0,1-.87-2.28v-.16a3.9,3.9,0,0,1,.36-1.71A2.75,2.75,0,0,1,359,305a3,3,0,0,1,1.54-.41,2.66,2.66,0,0,1,2.05.82,3.35,3.35,0,0,1,.75,2.33v.69h-4a1.64,1.64,0,0,0,.49,1,1.51,1.51,0,0,0,1.05.37,1.79,1.79,0,0,0,1.53-.71l.83.93a2.55,2.55,0,0,1-1,.85A3.37,3.37,0,0,1,360.71,311.12Zm-.19-5.21a1.08,1.08,0,0,0-.82.34,1.77,1.77,0,0,0-.4,1h2.35v-.14a1.21,1.21,0,0,0-.3-.87A1.12,1.12,0,0,0,360.52,305.91Zm7.28,1.76a8.27,8.27,0,0,1-.38,2.54,7,7,0,0,1-1.09,2.17,4.1,4.1,0,0,1-1.53,1.29l-.33-.9a4.15,4.15,0,0,0,1.31-1.93,9,9,0,0,0,.5-3v-.31a9.12,9.12,0,0,0-.48-3.09,4.27,4.27,0,0,0-1.33-2l.33-.9a4,4,0,0,1,1.5,1.25,6.75,6.75,0,0,1,1.09,2.12,8.08,8.08,0,0,1,.41,2.5Zm3.79.32v3h-1.76v-8.53h3.33a3.85,3.85,0,0,1,1.68.35,2.57,2.57,0,0,1,1.13,1,2.78,2.78,0,0,1,.39,1.47,2.45,2.45,0,0,1-.86,2,3.57,3.57,0,0,1-2.37.72Zm0-1.42h1.57a1.53,1.53,0,0,0,1.06-.33,1.21,1.21,0,0,0,.37-.94,1.44,1.44,0,0,0-.37-1,1.39,1.39,0,0,0-1-.4h-1.61Zm10-.32a4.83,4.83,0,0,0-.6-.05,1.24,1.24,0,0,0-1.26.65V311h-1.7v-6.34h1.6l0,.76a1.56,1.56,0,0,1,1.41-.88,1.84,1.84,0,0,1,.53.08Zm.95,1.52a3.77,3.77,0,0,1,.36-1.68A2.69,2.69,0,0,1,384,305a3,3,0,0,1,1.59-.41,2.86,2.86,0,0,1,2.09.79,3.18,3.18,0,0,1,.91,2.13v.43a3.34,3.34,0,0,1-.82,2.35,3.15,3.15,0,0,1-4.37,0,3.37,3.37,0,0,1-.82-2.39Zm1.69.12a2.43,2.43,0,0,0,.34,1.39,1.14,1.14,0,0,0,1,.47,1.11,1.11,0,0,0,1-.47,2.59,2.59,0,0,0,.34-1.51,2.33,2.33,0,0,0-.34-1.37,1.14,1.14,0,0,0-1-.49,1.13,1.13,0,0,0-1,.49A2.67,2.67,0,0,0,384.26,307.89Zm5.7-.11a3.84,3.84,0,0,1,.66-2.36,2.17,2.17,0,0,1,1.82-.88,1.94,1.94,0,0,1,1.53.69V302h1.7v9h-1.53l-.08-.67a2,2,0,0,1-1.63.79,2.17,2.17,0,0,1-1.8-.88A4,4,0,0,1,390,307.78Zm1.69.13a2.47,2.47,0,0,0,.31,1.36,1,1,0,0,0,.9.48,1.13,1.13,0,0,0,1.11-.67v-2.5a1.12,1.12,0,0,0-1.1-.66C392.06,305.92,391.65,306.58,391.65,307.91Zm9.73,2.44a2.13,2.13,0,0,1-1.74.77,2,2,0,0,1-1.55-.59,2.5,2.5,0,0,1-.55-1.72v-4.15h1.69v4.1c0,.66.31,1,.91,1a1.22,1.22,0,0,0,1.18-.6v-4.49H403V311h-1.6Zm6.15-.6a1.09,1.09,0,0,0,.77-.26.92.92,0,0,0,.3-.68h1.59a2.23,2.23,0,0,1-.35,1.18,2.33,2.33,0,0,1-.95.83,2.92,2.92,0,0,1-1.33.3,2.76,2.76,0,0,1-2.14-.86,3.42,3.42,0,0,1-.79-2.4v-.11a3.37,3.37,0,0,1,.78-2.33,2.7,2.7,0,0,1,2.14-.88,2.65,2.65,0,0,1,1.9.68,2.36,2.36,0,0,1,.74,1.8H408.6a1.19,1.19,0,0,0-.3-.8,1.06,1.06,0,0,0-.78-.31,1,1,0,0,0-.9.44,2.57,2.57,0,0,0-.29,1.39v.18a2.59,2.59,0,0,0,.29,1.4A1,1,0,0,0,407.53,309.75Zm6.25-6.65v1.56h1.09v1.24h-1.09v3.17a.75.75,0,0,0,.14.5.67.67,0,0,0,.51.15,2.47,2.47,0,0,0,.5,0V311a3.22,3.22,0,0,1-1,.16,1.61,1.61,0,0,1-1.81-1.8V305.9h-.93v-1.24h.93V303.1Zm4.42,7.9h-1.7v-6.34h1.7Zm-1.8-8a.85.85,0,0,1,.25-.63,1.13,1.13,0,0,1,1.39,0,.86.86,0,0,1,.26.63.8.8,0,0,1-.27.63.92.92,0,0,1-.68.25,1,1,0,0,1-.7-.25A.82.82,0,0,1,416.4,303Zm6.71,8.1a3.12,3.12,0,0,1-2.27-.86A3.05,3.05,0,0,1,420,308v-.16a3.77,3.77,0,0,1,.37-1.71,2.67,2.67,0,0,1,1-1.16,3,3,0,0,1,1.55-.41,2.64,2.64,0,0,1,2,.82,3.35,3.35,0,0,1,.75,2.33v.69h-4a1.6,1.6,0,0,0,.5,1,1.48,1.48,0,0,0,1.05.37,1.82,1.82,0,0,0,1.53-.71l.83.93a2.7,2.7,0,0,1-1,.85A3.45,3.45,0,0,1,423.11,311.12Zm-.19-5.21a1.08,1.08,0,0,0-.82.34,1.77,1.77,0,0,0-.4,1h2.36v-.14a1.26,1.26,0,0,0-.31-.87A1.1,1.1,0,0,0,422.92,305.91Zm4.83,5.09v-5.1h-.94v-1.24h.94v-.54a2.17,2.17,0,0,1,.61-1.65,2.35,2.35,0,0,1,1.72-.59,4.48,4.48,0,0,1,.86.11l0,1.32a1.88,1.88,0,0,0-.51-.06q-1,0-1,.9v.51h1.26v1.24h-1.26V311Z" transform="translate(-44.07 0)"/>
  <path d="M516.08,308v3h-1.75v-8.53h3.32a3.89,3.89,0,0,1,1.69.35,2.62,2.62,0,0,1,1.13,1,2.78,2.78,0,0,1,.39,1.47,2.45,2.45,0,0,1-.86,2,3.58,3.58,0,0,1-2.38.72Zm0-1.42h1.57a1.51,1.51,0,0,0,1.06-.33,1.18,1.18,0,0,0,.37-.94,1.4,1.4,0,0,0-.37-1,1.35,1.35,0,0,0-1-.4h-1.62Zm10-.32a4.82,4.82,0,0,0-.61-.05,1.25,1.25,0,0,0-1.26.65V311h-1.69v-6.34h1.6l.05.76a1.56,1.56,0,0,1,1.41-.88,1.84,1.84,0,0,1,.53.08Zm1,1.52a3.77,3.77,0,0,1,.36-1.68,2.67,2.67,0,0,1,1-1.14,3.08,3.08,0,0,1,1.59-.41,2.84,2.84,0,0,1,2.09.79,3.09,3.09,0,0,1,.91,2.13v.43a3.34,3.34,0,0,1-.81,2.35,2.85,2.85,0,0,1-2.19.88,2.88,2.88,0,0,1-2.19-.88,3.41,3.41,0,0,1-.81-2.39Zm1.69.12a2.43,2.43,0,0,0,.34,1.39,1.14,1.14,0,0,0,1,.47,1.11,1.11,0,0,0,1-.47,2.51,2.51,0,0,0,.35-1.51,2.26,2.26,0,0,0-.35-1.37,1.2,1.2,0,0,0-1.93,0A2.67,2.67,0,0,0,528.76,307.89Zm5.69-.11a3.78,3.78,0,0,1,.67-2.36,2.17,2.17,0,0,1,1.82-.88,2,2,0,0,1,1.53.69V302h1.7v9h-1.53l-.09-.67a2,2,0,0,1-1.62.79,2.17,2.17,0,0,1-1.8-.88A4,4,0,0,1,534.45,307.78Zm1.7.13a2.47,2.47,0,0,0,.31,1.36,1,1,0,0,0,.9.48,1.15,1.15,0,0,0,1.11-.67v-2.5a1.12,1.12,0,0,0-1.1-.66C536.55,305.92,536.15,306.58,536.15,307.91Zm9.73,2.44a2.13,2.13,0,0,1-1.74.77,2,2,0,0,1-1.56-.59,2.55,2.55,0,0,1-.54-1.72v-4.15h1.69v4.1q0,1,.9,1a1.23,1.23,0,0,0,1.19-.6v-4.49h1.7V311h-1.6Zm6.15-.6a1.06,1.06,0,0,0,.76-.26.89.89,0,0,0,.31-.68h1.58a2.15,2.15,0,0,1-.35,1.18,2.26,2.26,0,0,1-1,.83,2.88,2.88,0,0,1-1.32.3,2.79,2.79,0,0,1-2.15-.86,3.47,3.47,0,0,1-.78-2.4v-.11a3.37,3.37,0,0,1,.78-2.33,2.7,2.7,0,0,1,2.14-.88,2.65,2.65,0,0,1,1.9.68,2.36,2.36,0,0,1,.73,1.8H553.1a1.15,1.15,0,0,0-.31-.8,1,1,0,0,0-.77-.31,1,1,0,0,0-.9.44,2.47,2.47,0,0,0-.3,1.39v.18a2.49,2.49,0,0,0,.3,1.4A1,1,0,0,0,552,309.75Zm6.25-6.65v1.56h1.08v1.24h-1.08v3.17a.75.75,0,0,0,.13.5.69.69,0,0,0,.52.15,2.53,2.53,0,0,0,.5,0V311a3.31,3.31,0,0,1-1,.16,1.61,1.61,0,0,1-1.81-1.8V305.9h-.93v-1.24h.93V303.1Zm4.41,7.9H561v-6.34h1.7Zm-1.79-8a.85.85,0,0,1,.25-.63,1.11,1.11,0,0,1,1.38,0,.82.82,0,0,1,.26.63.79.79,0,0,1-.26.63.93.93,0,0,1-.69.25,1,1,0,0,1-.69-.25A.82.82,0,0,1,560.9,303Zm6.71,8.1a3.11,3.11,0,0,1-2.27-.86,3.05,3.05,0,0,1-.87-2.28v-.16a3.9,3.9,0,0,1,.36-1.71,2.75,2.75,0,0,1,1-1.16,3,3,0,0,1,1.54-.41,2.66,2.66,0,0,1,2.05.82,3.35,3.35,0,0,1,.75,2.33v.69h-4a1.64,1.64,0,0,0,.49,1,1.51,1.51,0,0,0,1.05.37,1.79,1.79,0,0,0,1.53-.71l.83.93a2.55,2.55,0,0,1-1,.85A3.37,3.37,0,0,1,567.61,311.12Zm-.19-5.21a1.08,1.08,0,0,0-.82.34,1.77,1.77,0,0,0-.4,1h2.35v-.14a1.21,1.21,0,0,0-.3-.87A1.12,1.12,0,0,0,567.42,305.91Zm4.83,5.09v-5.1h-1v-1.24h1v-.54a2.17,2.17,0,0,1,.61-1.65,2.35,2.35,0,0,1,1.72-.59,4.48,4.48,0,0,1,.86.11l0,1.32a1.9,1.9,0,0,0-.52-.06c-.63,0-.95.3-.95.9v.51h1.26v1.24H574V311Z" transform="translate(-44.07 0)"/>
  <path d="M685.32,308.16a3,3,0,0,1-1,2.17,3.59,3.59,0,0,1-2.41.79,3.24,3.24,0,0,1-2.59-1.1,4.59,4.59,0,0,1-.94-3v-.52a5.13,5.13,0,0,1,.44-2.17,3.35,3.35,0,0,1,1.23-1.44,3.54,3.54,0,0,1,1.88-.5,3.47,3.47,0,0,1,2.38.79,3.24,3.24,0,0,1,1,2.22h-1.76a1.7,1.7,0,0,0-.46-1.19,1.68,1.68,0,0,0-1.2-.38,1.48,1.48,0,0,0-1.32.64,3.43,3.43,0,0,0-.44,1.95V307a3.77,3.77,0,0,0,.41,2,1.46,1.46,0,0,0,1.33.64,1.72,1.72,0,0,0,1.21-.37,1.67,1.67,0,0,0,.46-1.15Zm5.21-1.91a5.13,5.13,0,0,0-.61-.05,1.24,1.24,0,0,0-1.26.65V311H687v-6.34h1.6l.05.76a1.56,1.56,0,0,1,1.41-.88,1.78,1.78,0,0,1,.53.08Zm4.22,4.87a3.15,3.15,0,0,1-2.28-.86,3.05,3.05,0,0,1-.87-2.28v-.16a3.77,3.77,0,0,1,.37-1.71,2.73,2.73,0,0,1,1-1.16,3,3,0,0,1,1.55-.41,2.62,2.62,0,0,1,2,.82,3.35,3.35,0,0,1,.75,2.33v.69h-4a1.59,1.59,0,0,0,.49,1,1.51,1.51,0,0,0,1.05.37,1.82,1.82,0,0,0,1.53-.71l.83.93a2.62,2.62,0,0,1-1,.85A3.44,3.44,0,0,1,694.75,311.12Zm-.2-5.21a1.1,1.1,0,0,0-.82.34,1.84,1.84,0,0,0-.4,1h2.36v-.14a1.3,1.3,0,0,0-.3-.87A1.14,1.14,0,0,0,694.55,305.91Zm8,5.09a2.28,2.28,0,0,1-.17-.57,2,2,0,0,1-1.59.69,2.25,2.25,0,0,1-1.55-.54,1.72,1.72,0,0,1-.61-1.36,1.81,1.81,0,0,1,.74-1.55,3.68,3.68,0,0,1,2.17-.54h.77v-.37a1,1,0,0,0-.22-.7.87.87,0,0,0-.71-.26,1,1,0,0,0-.68.2.71.71,0,0,0-.24.56h-1.69a1.71,1.71,0,0,1,.34-1,2.32,2.32,0,0,1,1-.73,3.46,3.46,0,0,1,1.4-.27,2.74,2.74,0,0,1,1.85.59,2.07,2.07,0,0,1,.69,1.66v2.74a3.18,3.18,0,0,0,.25,1.37v.1Zm-1.4-1.18a1.53,1.53,0,0,0,.7-.16,1.17,1.17,0,0,0,.46-.45v-1.09h-.63c-.85,0-1.3.29-1.35.88v.1a.68.68,0,0,0,.23.52A.87.87,0,0,0,701.19,309.82ZM708,303.1v1.56h1.09v1.24H708v3.17a.75.75,0,0,0,.14.5.67.67,0,0,0,.51.15,2.47,2.47,0,0,0,.5,0V311a3.22,3.22,0,0,1-1,.16,1.61,1.61,0,0,1-1.81-1.8V305.9h-.93v-1.24h.93V303.1Zm4.42,7.9h-1.7v-6.34h1.7Zm-1.8-8a.85.85,0,0,1,.25-.63,1.13,1.13,0,0,1,1.39,0,.86.86,0,0,1,.26.63.8.8,0,0,1-.27.63.92.92,0,0,1-.68.25,1,1,0,0,1-.7-.25A.82.82,0,0,1,710.6,303Zm6.71,8.1a3.14,3.14,0,0,1-2.27-.86,3.05,3.05,0,0,1-.87-2.28v-.16a3.77,3.77,0,0,1,.37-1.71,2.67,2.67,0,0,1,1-1.16,3,3,0,0,1,1.55-.41,2.64,2.64,0,0,1,2,.82,3.35,3.35,0,0,1,.75,2.33v.69h-4a1.54,1.54,0,0,0,.49,1,1.48,1.48,0,0,0,1,.37A1.82,1.82,0,0,0,719,309l.83.93a2.7,2.7,0,0,1-1,.85A3.45,3.45,0,0,1,717.31,311.12Zm-.19-5.21a1.08,1.08,0,0,0-.82.34,1.77,1.77,0,0,0-.4,1h2.36v-.14a1.26,1.26,0,0,0-.31-.87A1.1,1.1,0,0,0,717.12,305.91ZM722,311v-5.1H721v-1.24H722v-.54a2.2,2.2,0,0,1,.61-1.65,2.35,2.35,0,0,1,1.72-.59,4.48,4.48,0,0,1,.86.11l0,1.32a1.88,1.88,0,0,0-.51-.06q-1,0-1,.9v.51h1.26v1.24h-1.26V311Z" transform="translate(-44.07 0)"/>
  <path d="M103.28,34.16a3,3,0,0,1-1,2.17,3.59,3.59,0,0,1-2.41.79A3.24,3.24,0,0,1,97.26,36a4.58,4.58,0,0,1-.93-3v-.52a5.13,5.13,0,0,1,.43-2.17A3.22,3.22,0,0,1,98,28.86a3.4,3.4,0,0,1,1.87-.51,3.5,3.5,0,0,1,2.38.79,3.24,3.24,0,0,1,1,2.22h-1.75a1.75,1.75,0,0,0-.47-1.19,1.68,1.68,0,0,0-1.2-.38,1.49,1.49,0,0,0-1.32.64,3.43,3.43,0,0,0-.44,2V33a3.86,3.86,0,0,0,.41,2,1.48,1.48,0,0,0,1.33.64,1.72,1.72,0,0,0,1.21-.37,1.67,1.67,0,0,0,.46-1.15Zm1.38-.39a3.77,3.77,0,0,1,.36-1.68,2.69,2.69,0,0,1,1-1.14,3,3,0,0,1,1.58-.41,2.87,2.87,0,0,1,2.1.79,3.12,3.12,0,0,1,.9,2.13l0,.43a3.34,3.34,0,0,1-.82,2.35,2.85,2.85,0,0,1-2.18.88,2.89,2.89,0,0,1-2.2-.88,3.39,3.39,0,0,1-.81-2.39Zm1.69.12a2.43,2.43,0,0,0,.34,1.39,1.14,1.14,0,0,0,1,.47,1.11,1.11,0,0,0,1-.47,2.59,2.59,0,0,0,.34-1.51,2.33,2.33,0,0,0-.34-1.37,1.15,1.15,0,0,0-1-.49,1.12,1.12,0,0,0-1,.49A2.67,2.67,0,0,0,106.35,33.89Zm7.55-3.23,0,.71a2.24,2.24,0,0,1,1.82-.83,1.69,1.69,0,0,1,1.68,1,2.2,2.2,0,0,1,1.91-1,1.86,1.86,0,0,1,1.53.61,2.7,2.7,0,0,1,.51,1.8v4h-1.7V33a1.22,1.22,0,0,0-.21-.79.93.93,0,0,0-.75-.25,1,1,0,0,0-1,.73V37H116V33a1.15,1.15,0,0,0-.22-.79.92.92,0,0,0-.74-.25,1.11,1.11,0,0,0-1,.6V37h-1.69V30.66ZM129,33.89a3.77,3.77,0,0,1-.67,2.35,2.14,2.14,0,0,1-1.79.88,2,2,0,0,1-1.55-.67v3h-1.7V30.66h1.57l.06.62a2,2,0,0,1,1.61-.74,2.14,2.14,0,0,1,1.82.87A3.94,3.94,0,0,1,129,33.8Zm-1.69-.12A2.5,2.5,0,0,0,127,32.4a1,1,0,0,0-.91-.48,1.1,1.1,0,0,0-1.09.61v2.59a1.11,1.11,0,0,0,1.1.63C126.91,35.75,127.32,35.09,127.32,33.77ZM132.45,37h-1.7V28h1.7Zm4.92.12a3.11,3.11,0,0,1-2.27-.86,3,3,0,0,1-.88-2.28v-.16a3.91,3.91,0,0,1,.37-1.71,2.75,2.75,0,0,1,1-1.16,2.93,2.93,0,0,1,1.54-.41,2.66,2.66,0,0,1,2,.82,3.35,3.35,0,0,1,.75,2.33v.69h-4a1.64,1.64,0,0,0,.49,1,1.51,1.51,0,0,0,1,.37A1.82,1.82,0,0,0,139,35l.83.93a2.48,2.48,0,0,1-1,.85A3.37,3.37,0,0,1,137.37,37.12Zm-.19-5.21a1.08,1.08,0,0,0-.82.34,1.77,1.77,0,0,0-.4,1h2.35v-.14a1.21,1.21,0,0,0-.3-.87A1.12,1.12,0,0,0,137.18,31.91Zm6.78.64L145,30.66h1.82L145,33.77,146.91,37H145.1L144,35l-1.12,2H141l1.88-3.23-1.8-3.11h1.82Z" transform="translate(-44.07 0)"/>
  <path d="M49.21,108.3H45.83v2.29h4V112H44.07v-8.53h5.71v1.42h-4v2h3.38Zm3.66-2.64.05.73a2.24,2.24,0,0,1,1.83-.85,1.86,1.86,0,0,1,1.5.59,2.85,2.85,0,0,1,.5,1.77V112H55.06v-4.06a1.06,1.06,0,0,0-.24-.77,1,1,0,0,0-.78-.25,1.16,1.16,0,0,0-1.07.61V112H51.28v-6.34ZM60.43,112h-1.7v-6.34h1.7Zm-1.8-8a.85.85,0,0,1,.25-.63,1.13,1.13,0,0,1,1.39,0,.86.86,0,0,1,.26.63.8.8,0,0,1-.27.63,1.06,1.06,0,0,1-1.37,0A.79.79,0,0,1,58.63,104Zm3.55,4.76a3.75,3.75,0,0,1,.69-2.35,2.28,2.28,0,0,1,1.88-.89,2,2,0,0,1,1.62.72l.07-.6H68v6.13a2.67,2.67,0,0,1-.39,1.45,2.35,2.35,0,0,1-1.06.93,3.63,3.63,0,0,1-1.6.33,3.39,3.39,0,0,1-1.36-.29,2.34,2.34,0,0,1-1-.71l.75-1a2,2,0,0,0,1.53.71,1.42,1.42,0,0,0,1.05-.37,1.32,1.32,0,0,0,.38-1v-.34a1.94,1.94,0,0,1-1.54.67,2.28,2.28,0,0,1-1.86-.89,3.8,3.8,0,0,1-.7-2.38Zm1.69.13a2.33,2.33,0,0,0,.35,1.35,1.12,1.12,0,0,0,1,.49,1.21,1.21,0,0,0,1.11-.58V107.5a1.18,1.18,0,0,0-1.1-.58,1.11,1.11,0,0,0-1,.5A2.62,2.62,0,0,0,63.87,108.91Zm8,1.72h3.1V112H69.67v-1l3-3.94h-2.9v-1.37h5.08v1ZM78.38,112h-1.7v-6.34h1.7Zm-1.8-8a.85.85,0,0,1,.25-.63,1,1,0,0,1,.7-.24,1,1,0,0,1,.69.24.85.85,0,0,1,.25.63.79.79,0,0,1-.26.63.92.92,0,0,1-.68.25,1,1,0,0,1-.7-.25A.82.82,0,0,1,76.58,104Zm5.35,1.64.06.73a2.23,2.23,0,0,1,1.82-.85,1.86,1.86,0,0,1,1.5.59,2.73,2.73,0,0,1,.5,1.77V112H84.12v-4.06a1.11,1.11,0,0,0-.23-.77,1,1,0,0,0-.78-.25,1.17,1.17,0,0,0-1.08.61V112H80.34v-6.34Zm9.21,4.59a.55.55,0,0,0-.32-.49,3.27,3.27,0,0,0-1-.32c-1.51-.32-2.26-1-2.26-1.92a1.73,1.73,0,0,1,.7-1.41,2.8,2.8,0,0,1,1.83-.57,3,3,0,0,1,1.93.57,1.8,1.8,0,0,1,.72,1.48H91.07a.85.85,0,0,0-.23-.6,1,1,0,0,0-.74-.24,1,1,0,0,0-.66.19.64.64,0,0,0-.23.5.54.54,0,0,0,.26.45,2.81,2.81,0,0,0,.9.3,7.39,7.39,0,0,1,1.07.28,1.76,1.76,0,0,1,1.34,1.71,1.66,1.66,0,0,1-.74,1.4,3.21,3.21,0,0,1-1.92.54,3.49,3.49,0,0,1-1.42-.28,2.62,2.62,0,0,1-1-.78,1.88,1.88,0,0,1-.35-1.08H89a.87.87,0,0,0,.33.7,1.32,1.32,0,0,0,.83.24,1.2,1.2,0,0,0,.73-.19A.56.56,0,0,0,91.14,110.25Zm9.56.5a1.06,1.06,0,0,0,.76-.26.89.89,0,0,0,.31-.68h1.59A2.16,2.16,0,0,1,103,111a2.24,2.24,0,0,1-.94.83,2.92,2.92,0,0,1-1.33.3,2.76,2.76,0,0,1-2.14-.86,3.42,3.42,0,0,1-.79-2.4v-.11a3.37,3.37,0,0,1,.78-2.33,2.7,2.7,0,0,1,2.14-.88,2.65,2.65,0,0,1,1.9.68,2.36,2.36,0,0,1,.74,1.8h-1.59a1.15,1.15,0,0,0-.31-.8,1,1,0,0,0-.77-.31,1,1,0,0,0-.9.44,2.57,2.57,0,0,0-.29,1.39v.18a2.59,2.59,0,0,0,.29,1.4A1,1,0,0,0,100.7,110.75Zm4-2a3.77,3.77,0,0,1,.36-1.68,2.69,2.69,0,0,1,1-1.14,3,3,0,0,1,1.58-.41,2.87,2.87,0,0,1,2.1.79,3.12,3.12,0,0,1,.9,2.13l0,.43a3.34,3.34,0,0,1-.82,2.35,2.85,2.85,0,0,1-2.18.88,2.89,2.89,0,0,1-2.2-.88,3.41,3.41,0,0,1-.81-2.39Zm1.69.12a2.43,2.43,0,0,0,.34,1.39,1.14,1.14,0,0,0,1,.47,1.11,1.11,0,0,0,1-.47,2.59,2.59,0,0,0,.34-1.51,2.33,2.33,0,0,0-.34-1.37,1.15,1.15,0,0,0-1-.49,1.12,1.12,0,0,0-1,.49A2.67,2.67,0,0,0,106.35,108.89Zm7.55-3.23,0,.71a2.24,2.24,0,0,1,1.82-.83,1.68,1.68,0,0,1,1.68,1,2.18,2.18,0,0,1,1.91-1,1.86,1.86,0,0,1,1.53.61,2.7,2.7,0,0,1,.51,1.8v4h-1.7v-4a1.22,1.22,0,0,0-.21-.79.93.93,0,0,0-.75-.25,1,1,0,0,0-1,.73V112H116v-4a1.15,1.15,0,0,0-.22-.79.92.92,0,0,0-.74-.25,1.11,1.11,0,0,0-1,.6V112h-1.69v-6.34ZM129,108.89a3.79,3.79,0,0,1-.67,2.35,2.14,2.14,0,0,1-1.79.88,2,2,0,0,1-1.55-.67v3h-1.7v-8.78h1.57l.06.62a2,2,0,0,1,1.61-.74,2.14,2.14,0,0,1,1.82.87,3.92,3.92,0,0,1,.65,2.39Zm-1.69-.12a2.5,2.5,0,0,0-.32-1.37,1,1,0,0,0-.91-.48,1.1,1.1,0,0,0-1.09.61v2.59a1.11,1.11,0,0,0,1.1.63C126.91,110.75,127.32,110.09,127.32,108.77Zm5.13,3.23h-1.7v-9h1.7Zm4.92.12a3.11,3.11,0,0,1-2.27-.86,3,3,0,0,1-.88-2.28v-.16a3.91,3.91,0,0,1,.37-1.71,2.75,2.75,0,0,1,1-1.16,2.93,2.93,0,0,1,1.54-.41,2.66,2.66,0,0,1,2,.82,3.35,3.35,0,0,1,.75,2.33v.69h-4a1.64,1.64,0,0,0,.49,1,1.51,1.51,0,0,0,1,.37A1.82,1.82,0,0,0,139,110l.83.93a2.55,2.55,0,0,1-1,.85A3.37,3.37,0,0,1,137.37,112.12Zm-.19-5.21a1.08,1.08,0,0,0-.82.34,1.77,1.77,0,0,0-.4,1h2.35v-.14a1.21,1.21,0,0,0-.3-.87A1.12,1.12,0,0,0,137.18,106.91Zm6.78.64,1.06-1.89h1.82L145,108.77l1.88,3.23H145.1L144,110l-1.12,2H141l1.88-3.23-1.8-3.11h1.82Z" transform="translate(-44.07 0)"/>
  <path d="M66.63,185.59h3.73V187H64.87v-8.53h1.76Zm7,1.41H72v-6.34h1.7Zm-1.8-8a.89.89,0,0,1,.25-.63,1,1,0,0,1,.7-.24,1,1,0,0,1,.69.24.86.86,0,0,1,.26.63.83.83,0,0,1-.26.63,1.08,1.08,0,0,1-1.38,0A.83.83,0,0,1,71.85,179Zm6.44,6.73a1.08,1.08,0,0,0,.76-.26.88.88,0,0,0,.3-.68h1.59a2.15,2.15,0,0,1-.35,1.18,2.33,2.33,0,0,1-1,.83,2.91,2.91,0,0,1-1.32.3,2.79,2.79,0,0,1-2.15-.86,3.47,3.47,0,0,1-.78-2.4v-.11a3.37,3.37,0,0,1,.78-2.33,3,3,0,0,1,4-.2,2.39,2.39,0,0,1,.73,1.8H79.35a1.15,1.15,0,0,0-.3-.8,1,1,0,0,0-.77-.31,1,1,0,0,0-.9.44,2.47,2.47,0,0,0-.3,1.39v.18a2.49,2.49,0,0,0,.3,1.4A1,1,0,0,0,78.29,185.75Zm5.87-4.4a2.11,2.11,0,0,1,1.69-.81q2.07,0,2.1,2.4V187h-1.7v-4a1.21,1.21,0,0,0-.23-.81,1,1,0,0,0-.78-.26,1.15,1.15,0,0,0-1.08.57V187H82.47v-9h1.69Zm7.69-2.25v1.56h1.08v1.24H91.85v3.17a.75.75,0,0,0,.14.5.66.66,0,0,0,.51.15,2.53,2.53,0,0,0,.5,0V187a3.26,3.26,0,0,1-1,.16,1.61,1.61,0,0,1-1.81-1.8V181.9h-.93v-1.24h.93V179.1Zm8.85,6.65a1.06,1.06,0,0,0,.76-.26.89.89,0,0,0,.31-.68h1.59A2.16,2.16,0,0,1,103,186a2.24,2.24,0,0,1-.94.83,2.92,2.92,0,0,1-1.33.3,2.76,2.76,0,0,1-2.14-.86,3.42,3.42,0,0,1-.79-2.4v-.11a3.37,3.37,0,0,1,.78-2.33,2.7,2.7,0,0,1,2.14-.88,2.65,2.65,0,0,1,1.9.68,2.36,2.36,0,0,1,.74,1.8h-1.59a1.15,1.15,0,0,0-.31-.8,1,1,0,0,0-.77-.31,1,1,0,0,0-.9.44,2.57,2.57,0,0,0-.29,1.39v.18a2.59,2.59,0,0,0,.29,1.4A1,1,0,0,0,100.7,185.75Zm4-2a3.77,3.77,0,0,1,.36-1.68,2.69,2.69,0,0,1,1-1.14,3,3,0,0,1,1.58-.41,2.87,2.87,0,0,1,2.1.79,3.12,3.12,0,0,1,.9,2.13l0,.43a3.34,3.34,0,0,1-.82,2.35,2.85,2.85,0,0,1-2.18.88,2.89,2.89,0,0,1-2.2-.88,3.41,3.41,0,0,1-.81-2.39Zm1.69.12a2.43,2.43,0,0,0,.34,1.39,1.14,1.14,0,0,0,1,.47,1.11,1.11,0,0,0,1-.47,2.59,2.59,0,0,0,.34-1.51,2.33,2.33,0,0,0-.34-1.37,1.15,1.15,0,0,0-1-.49,1.12,1.12,0,0,0-1,.49A2.67,2.67,0,0,0,106.35,183.89Zm7.55-3.23,0,.71a2.24,2.24,0,0,1,1.82-.83,1.68,1.68,0,0,1,1.68,1,2.18,2.18,0,0,1,1.91-1,1.86,1.86,0,0,1,1.53.61,2.7,2.7,0,0,1,.51,1.8V187h-1.7v-4a1.22,1.22,0,0,0-.21-.79.93.93,0,0,0-.75-.25,1,1,0,0,0-1,.73V187H116v-4a1.15,1.15,0,0,0-.22-.79.92.92,0,0,0-.74-.25,1.11,1.11,0,0,0-1,.6V187h-1.69v-6.34ZM129,183.89a3.79,3.79,0,0,1-.67,2.35,2.14,2.14,0,0,1-1.79.88,2,2,0,0,1-1.55-.67v3h-1.7v-8.78h1.57l.06.62a2,2,0,0,1,1.61-.74,2.14,2.14,0,0,1,1.82.87,3.92,3.92,0,0,1,.65,2.39Zm-1.69-.12a2.5,2.5,0,0,0-.32-1.37,1,1,0,0,0-.91-.48,1.1,1.1,0,0,0-1.09.61v2.59a1.11,1.11,0,0,0,1.1.63C126.91,185.75,127.32,185.09,127.32,183.77Zm5.13,3.23h-1.7v-9h1.7Zm4.92.12a3.11,3.11,0,0,1-2.27-.86,3,3,0,0,1-.88-2.28v-.16a3.91,3.91,0,0,1,.37-1.71,2.75,2.75,0,0,1,1-1.16,2.93,2.93,0,0,1,1.54-.41,2.66,2.66,0,0,1,2,.82,3.35,3.35,0,0,1,.75,2.33v.69h-4a1.64,1.64,0,0,0,.49,1,1.51,1.51,0,0,0,1,.37A1.82,1.82,0,0,0,139,185l.83.93a2.55,2.55,0,0,1-1,.85A3.37,3.37,0,0,1,137.37,187.12Zm-.19-5.21a1.08,1.08,0,0,0-.82.34,1.77,1.77,0,0,0-.4,1h2.35v-.14a1.21,1.21,0,0,0-.3-.87A1.12,1.12,0,0,0,137.18,181.91Zm6.78.64,1.06-1.89h1.82L145,183.77l1.88,3.23H145.1L144,185l-1.12,2H141l1.88-3.23-1.8-3.11h1.82Z" transform="translate(-44.07 0)"/>
  <path d="M92,258.3H88.59v2.29h4V262H86.83v-8.53h5.71v1.42h-4v2H92Zm4.91,3.82a3.15,3.15,0,0,1-2.28-.86,3.05,3.05,0,0,1-.87-2.28v-.16a3.77,3.77,0,0,1,.37-1.71,2.73,2.73,0,0,1,1-1.16,3,3,0,0,1,1.55-.41,2.66,2.66,0,0,1,2,.82,3.35,3.35,0,0,1,.75,2.33v.69h-4a1.59,1.59,0,0,0,.49,1,1.51,1.51,0,0,0,1,.37,1.82,1.82,0,0,0,1.53-.71l.83.93a2.62,2.62,0,0,1-1,.85A3.37,3.37,0,0,1,96.87,262.12Zm-.19-5.21a1.12,1.12,0,0,0-.83.34,1.76,1.76,0,0,0-.39,1h2.35v-.14a1.3,1.3,0,0,0-.3-.87A1.13,1.13,0,0,0,96.68,256.91Zm5.92-1.25.05.73a2.24,2.24,0,0,1,1.83-.85,1.86,1.86,0,0,1,1.5.59,2.85,2.85,0,0,1,.5,1.77V262h-1.69v-4.06a1.06,1.06,0,0,0-.24-.77,1,1,0,0,0-.78-.25,1.16,1.16,0,0,0-1.07.61V262H101v-6.34Zm8.14,4.27,1.18-4.27h1.77L111.55,262h-1.62l-2.14-6.34h1.77Zm3.94-1.16a3.77,3.77,0,0,1,.36-1.68,2.76,2.76,0,0,1,1-1.14,3,3,0,0,1,1.59-.41,2.86,2.86,0,0,1,2.09.79,3.18,3.18,0,0,1,.91,2.13v.43a3.3,3.3,0,0,1-.82,2.35,3.15,3.15,0,0,1-4.37,0,3.37,3.37,0,0,1-.82-2.39Zm1.7.12a2.44,2.44,0,0,0,.33,1.39,1.16,1.16,0,0,0,1,.47,1.11,1.11,0,0,0,1-.47,2.58,2.58,0,0,0,.35-1.51,2.33,2.33,0,0,0-.35-1.37,1.14,1.14,0,0,0-1-.49,1.13,1.13,0,0,0-1,.49A2.67,2.67,0,0,0,116.38,258.89Zm9.75,2.46a2.13,2.13,0,0,1-1.74.77,2,2,0,0,1-1.56-.59,2.55,2.55,0,0,1-.54-1.72v-4.15H124v4.1c0,.66.3,1,.91,1a1.23,1.23,0,0,0,1.18-.6v-4.49h1.7V262h-1.59Zm3.25-2.57a3.84,3.84,0,0,1,.66-2.36,2.2,2.2,0,0,1,1.83-.88,2,2,0,0,1,1.53.69V253h1.7v9h-1.53l-.09-.67a2,2,0,0,1-1.63.79,2.17,2.17,0,0,1-1.79-.88A4,4,0,0,1,129.38,258.78Zm1.69.13a2.46,2.46,0,0,0,.32,1.36,1,1,0,0,0,.9.48,1.15,1.15,0,0,0,1.11-.67v-2.5a1.13,1.13,0,0,0-1.1-.66C131.48,256.92,131.07,257.58,131.07,258.91Zm7.72,3.09H137.1v-6.34h1.69ZM137,254a.85.85,0,0,1,.25-.63,1,1,0,0,1,.7-.24,1,1,0,0,1,.69.24.85.85,0,0,1,.25.63.79.79,0,0,1-.26.63.92.92,0,0,1-.68.25,1,1,0,0,1-.7-.25A.82.82,0,0,1,137,254Zm3.55,4.76a3.75,3.75,0,0,1,.69-2.35,2.28,2.28,0,0,1,1.88-.89,2,2,0,0,1,1.62.72l.07-.6h1.53v6.13a2.66,2.66,0,0,1-.38,1.45,2.35,2.35,0,0,1-1.06.93,3.63,3.63,0,0,1-1.6.33,3.39,3.39,0,0,1-1.36-.29,2.34,2.34,0,0,1-1-.71l.75-1a2,2,0,0,0,1.53.71,1.42,1.42,0,0,0,1.05-.37,1.32,1.32,0,0,0,.38-1v-.34a2,2,0,0,1-1.55.67,2.27,2.27,0,0,1-1.85-.89,3.74,3.74,0,0,1-.7-2.38Zm1.69.13a2.33,2.33,0,0,0,.35,1.35,1.11,1.11,0,0,0,.95.49,1.21,1.21,0,0,0,1.11-.58V257.5a1.18,1.18,0,0,0-1.1-.58,1.11,1.11,0,0,0-1,.5A2.62,2.62,0,0,0,142.24,258.91Z" transform="translate(-44.07 0)"/>
  <ellipse class="cls-6" cx="573.93" cy="107.22" rx="154.36" ry="35.34"/>
</svg>
